<?xml version="1.0" encoding="UTF-8"?>
<svg data-bbox="0 55 500 372.5" viewBox="0 0 500 500" xmlns="http://www.w3.org/2000/svg" data-type="color">
    <g>
        <path fill="#ebebeb" d="M500 382.4v.2H0v-.2h500z" data-color="1"/>
        <path fill="#ebebeb" d="M449.9 398.5v.2h-21.7v-.2h21.7z" data-color="1"/>
        <path fill="#ebebeb" d="M344.7 393.3v.2h-34.1v-.2h34.1z" data-color="1"/>
        <path fill="#ebebeb" d="M441.1 389.2v.2h-44.5v-.2h44.5z" data-color="1"/>
        <path fill="#ebebeb" d="M173 394.2v.2h-11.1v-.2H173z" data-color="1"/>
        <path fill="#ebebeb" d="M153 394.2v.2h-38.4v-.2H153z" data-color="1"/>
        <path fill="#ebebeb" d="M94 390v.2H66.3v-.2H94z" data-color="1"/>
        <path d="M237 337.8H43.9c-3.1 0-5.7-2.6-5.7-5.7V60.7c0-3.1 2.6-5.7 5.7-5.7H237c3.1 0 5.7 2.6 5.7 5.7v271.4c0 3.1-2.5 5.7-5.7 5.7zM43.9 55.2c-3 0-5.5 2.4-5.5 5.5v271.4c0 3 2.4 5.5 5.5 5.5H237c3 0 5.5-2.4 5.5-5.5V60.7c0-3-2.4-5.5-5.5-5.5H43.9z" fill="#ebebeb" data-color="1"/>
        <path d="M453.3 337.8H260.2c-3.1 0-5.7-2.6-5.7-5.7V60.7c0-3.1 2.6-5.7 5.7-5.7h193.1c3.1 0 5.7 2.6 5.7 5.7v271.4c0 3.1-2.5 5.7-5.7 5.7zM260.2 55.2c-3 0-5.5 2.4-5.5 5.5v271.4c0 3 2.4 5.5 5.5 5.5h193.1c3 0 5.5-2.4 5.5-5.5V60.7c0-3-2.4-5.5-5.5-5.5H260.2z" fill="#ebebeb" data-color="1"/>
        <path d="m216.1 200.9.5-13.1-8.1-2.6c-.3-4.5-1.1-8.9-2.2-13.2l6.8-5-4.6-12.3-8.5.7c-2-4-4.4-7.8-7-11.4l4.4-7.3-9-9.6-7.6 3.9c-3.4-2.9-7-5.5-10.8-7.8l1.2-8.4-12-5.4-5.5 6.4c-4.2-1.4-8.5-2.4-13-3l-2-8.2-13.2-.5-2.6 8.1c-4.5.4-8.9 1.1-13.2 2.2l-5.1-6.8-12.3 4.6.7 8.5c-4 2-7.8 4.4-11.4 7.1l-7.3-4.4-9.6 9 3.9 7.6c-2.9 3.4-5.5 7-7.8 10.8l-8.4-1.3-5.5 12 6.5 5.5c-1.4 4.2-2.4 8.6-3 13l-8.3 2.1-.5 13.1 8.1 2.6c.3 4.5 1.1 8.9 2.2 13.2l-6.8 5 4.6 12.3 8.5-.7c2 4 4.4 7.8 7 11.4l-4.4 7.3 9 9.6 7.6-3.9c3.4 2.9 7 5.5 10.8 7.8l-1.3 8.4 12 5.4 5.5-6.4c4.2 1.4 8.5 2.4 13 3l2 8.2 13.2.5 2.6-8.1c4.5-.4 8.9-1.1 13.2-2.2l5 6.8 12.3-4.6-.6-8.5c4-2 7.8-4.4 11.4-7.1l7.3 4.4 9.6-9-3.9-7.6c2.9-3.4 5.5-7 7.8-10.8l8.4 1.3 5.5-12-6.5-5.5c1.4-4.2 2.4-8.5 3-13l8.4-2.1zm-88.8 42.5c-28.8-1-51.3-25.1-50.3-53.9 1-28.8 25.1-51.3 53.9-50.4 28.8 1 51.3 25.1 50.3 53.9-1 28.9-25.1 51.4-53.9 50.4z" fill="#ebebeb" data-color="1"/>
        <path d="m441 157.4 3.3-3.1-1.3-2.6c1-1.2 1.9-2.4 2.7-3.7l2.9.4 1.9-4.1-2.2-1.9c.5-1.5.8-3 1.1-4.5l2.9-.7.1-4.5-2.8-.9c-.1-1.5-.4-3.1-.7-4.6l2.3-1.7-1.6-4.3-2.9.2c-.7-1.4-1.5-2.7-2.4-3.9l1.5-2.5-3.1-3.3-2.6 1.3c-1.2-1-2.4-1.9-3.7-2.7l.4-2.9-4.1-1.9-1.9 2.2c-1.5-.5-3-.8-4.5-1l-.7-2.8-4.5-.2-.9 2.8c-1.5.1-3.1.4-4.5.7l-1.7-2.4-4.3 1.6.2 2.9c-1.4.7-2.7 1.5-3.9 2.4l-2.5-1.5-3.3 3.1 1.3 2.6c-1 1.2-1.9 2.4-2.7 3.7l-2.9-.4-1.9 4.1 2.2 1.9c-.5 1.5-.8 3-1.1 4.5l-2.9.7-.1 4.5 2.8.9c.1 1.5.4 3.1.7 4.6l-2.4 1.7 1.6 4.3 2.9-.2c.7 1.4 1.5 2.7 2.4 3.9l-1.5 2.5 3.1 3.3 2.6-1.3c1.2 1 2.4 1.9 3.7 2.7l-.4 2.9 4.1 1.9 1.9-2.2c1.5.5 3 .8 4.5 1l.7 2.8 4.5.2.9-2.8c1.5-.1 3.1-.4 4.5-.7l1.7 2.4 4.3-1.6-.2-2.9c1.4-.7 2.7-1.5 3.9-2.4l2.6 1.5zm-23.7-19.1c-2.4-2.6-2.3-6.7.3-9.1 2.6-2.4 6.7-2.3 9.1.3 2.4 2.6 2.3 6.7-.3 9.1-2.5 2.4-6.6 2.3-9.1-.3z" fill="#ebebeb" data-color="1"/>
        <path d="m320 292.3-10.3-7.1c-1-3.8-2.4-7.4-4.2-10.8l2.6-10.4-15-16.1-10.6 1.9c-3.3-2-6.8-3.6-10.5-4.9l-6.4-10.8-22-.8-7.1 10.3c-3.8 1-7.4 2.4-10.8 4.2l-10.4-2.6-16.1 15 1.9 10.5c-2 3.3-3.6 6.8-4.9 10.5l-10.8 6.4-.8 22 10.4 7.1c1 3.8 2.4 7.4 4.1 10.8l-2.6 10.4 15 16.1 10.5-1.9c3.3 2 6.8 3.6 10.5 4.9l6.4 10.8 22 .8 7.1-10.3c3.8-1 7.4-2.4 10.9-4.2l10.3 2.6 16.1-15-1.9-10.5c2-3.3 3.6-6.8 4.9-10.5l10.8-6.4.9-22zm-68.5 33.4c-13.7-.5-24.3-11.9-23.9-25.5.5-13.7 11.9-24.3 25.5-23.9 13.7.5 24.3 11.9 23.9 25.5-.4 13.7-11.8 24.4-25.5 23.9z" fill="#ebebeb" data-color="1"/>
        <path d="m343.5 230-17.4-.6c-.7 0-1.4-.4-1.7-1l-4.7-7.9c-2.5-.9-4.9-2-7.3-3.4l-7.5 1.4c-.7.1-1.4-.1-1.9-.6l-11.8-12.7c-.5-.5-.7-1.3-.5-2l1.9-7.4c-1.1-2.3-2.1-4.9-2.9-7.5l-7.5-5.2c-.6-.4-.9-1.1-.9-1.8l.6-17.3c0-.7.4-1.4 1-1.7l7.9-4.7c.9-2.6 2.1-5 3.4-7.2l-1.4-7.5c-.1-.7.1-1.4.6-1.9l12.7-11.8c.5-.5 1.3-.7 2-.5l7.4 1.9c2.4-1.2 4.9-2.1 7.4-2.9l5.2-7.5c.4-.6 1.1-1 1.8-.9l17.3.6c.7 0 1.4.4 1.7 1l4.7 7.9c2.5.9 4.9 2 7.2 3.4l7.6-1.4c.7-.1 1.4.1 1.9.6l11.8 12.7c.5.5.7 1.3.5 2l-1.9 7.4c1.2 2.4 2.1 4.9 2.9 7.4l7.5 5.2c.6.4.9 1.1.9 1.8l-.6 17.3c0 .7-.4 1.4-1 1.7l-7.9 4.7c-.9 2.6-2.1 5-3.4 7.2l1.4 7.5c.1.7-.1 1.4-.6 1.9L367.3 220c-.5.5-1.3.7-2 .5l-7.4-1.9c-2.4 1.2-5 2.1-7.5 2.9l-5.2 7.5c-.3.6-1 1-1.7 1zm-16-4.8 15 .5 5-7.2c.3-.4.7-.7 1.2-.8 2.8-.7 5.5-1.8 8.2-3.1.4-.2 1-.3 1.5-.2l7 1.8 11-10.2-1.3-7.2c-.1-.5 0-1 .3-1.5 1.4-2.4 2.7-5 3.7-7.8.2-.5.5-.9.9-1.2l7.5-4.5.5-15-7.2-5c-.4-.3-.7-.6-.8-1.1v-.2c-.8-2.8-1.8-5.5-3.1-8.1-.2-.5-.3-1-.2-1.5l1.8-7.1-10.2-11-7.2 1.3c-.5.1-1 0-1.5-.3-2.5-1.5-5.1-2.7-7.8-3.7-.2-.1-.3-.1-.4-.2-.3-.2-.5-.4-.7-.7l-4.5-7.5-15-.5-5 7.2c-.3.4-.7.7-1.2.9-2.8.8-5.5 1.8-8.1 3.1-.5.2-1 .3-1.5.2l-7.1-1.8-11 10.3 1.3 7.2c.1.5 0 .9-.2 1.3 0 .1-.1.1-.1.2-1.5 2.4-2.7 5.1-3.7 7.9-.2.5-.5.9-.9 1.1l-7.5 4.5-.5 15 7.2 5c.4.3.7.7.8 1.2.8 2.9 1.8 5.6 3.1 8.1.1.1.1.3.2.5.1.3.1.7 0 1l-1.8 7.1 10.2 11 7.1-1.3c.5-.1 1 0 1.5.3 2.5 1.5 5.2 2.7 7.9 3.7.5.2.9.5 1.2.9l4.4 7.4zm24.7-94.8zm-15.5 75.8h-1.1c-17.4-.6-31.2-15.3-30.6-32.7.6-17.4 15.3-31.1 32.7-30.6 17.4.6 31.2 15.3 30.6 32.7-.3 8.4-3.9 16.3-10 22-5.9 5.6-13.5 8.6-21.6 8.6zm0-59.1c-14.7 0-26.9 11.7-27.4 26.5-.5 15.1 11.4 27.8 26.5 28.4 7.3.2 14.3-2.4 19.7-7.4 5.4-5 8.4-11.8 8.7-19.1.5-15.1-11.4-27.8-26.5-28.4h-1z" fill="#ebebeb" data-color="1"/>
        <path fill="#e0e0e0" d="m383.4 105.3-7.1-1.9-2-7.2 2.8-2.8 3 6.2 6.1 2.9-2.8 2.8z" data-color="2"/>
        <path d="M383.9 100.5c1.3-1.3 1.3-3.4 0-4.7a3.32 3.32 0 0 0-4.7 0l3.6-5.4 4.8 2.4 1 5-4.7 2.7z" fill="#e0e0e0" data-color="2"/>
        <path d="m376.6 94 5.3-5.3 7.2 1.9 1.9 7.2-5.3 5.3-7.2-1.9-1.9-7.2zm9.5 4.3c1.3-1.3 1.3-3.4 0-4.7a3.32 3.32 0 0 0-4.7 0 3.32 3.32 0 0 0 0 4.7c1.3 1.3 3.4 1.3 4.7 0z" fill="#f0f0f0" data-color="3"/>
        <path fill="#e0e0e0" d="m90.2 296.7 3.9-1 1-3.9-1.5-1.5-1.6 3.3-3.3 1.6 1.5 1.5z" data-color="2"/>
        <path d="M90 294.1c-.7-.7-.7-1.8 0-2.5s1.8-.7 2.5 0l-1.9-2.9L88 290l-.6 2.7 2.6 1.4z" fill="#e0e0e0" data-color="2"/>
        <path d="m93.9 290.6-2.8-2.8-3.8 1-1 3.8 2.8 2.8 3.8-1 1-3.8zm-5.1 2.3c-.7-.7-.7-1.8 0-2.5s1.8-.7 2.5 0 .7 1.8 0 2.5-1.8.7-2.5 0z" fill="#f0f0f0" data-color="3"/>
        <path d="m76.4 85.7 3.2 3.2c.8.8 2.2.8 3 0 .8-.8.8-2.2 0-3l-3.2-3.2c-.8-.8-2.2-.8-3 0-.9.8-.9 2.1 0 3z" fill="#f0f0f0" data-color="3"/>
        <path d="M74.1 77.7c2.5-.9 5.1.3 6 2.6.8 2.3-.5 4.9-3 5.8-2.5.9-5.1-.3-6-2.6-.8-2.3.5-4.9 3-5.8z" fill="#e0e0e0" data-color="2"/>
        <path fill="#f0f0f0" d="m70.597 82.975 9.505-3.414.474 1.317-9.506 3.414-.473-1.317z" data-color="3"/>
        <path fill="#f5f5f5" d="M443.9 416.2c0 6.24-86.812 11.3-193.9 11.3-107.088 0-193.9-5.06-193.9-11.3 0-6.24 86.812-11.3 193.9-11.3 107.088 0 193.9 5.06 193.9 11.3z" data-color="4"/>
        <path d="M86.7 120.6c-1-4.4-.6-8.1 1.3-11.1s5-5 9.4-6c4.5-1 8.2-.6 11.2 1.3s5 5 5.9 9.3c.7 3.2.8 5.9.2 8.1-.6 2.3-1.8 4.2-3.5 5.8-1.8 1.6-4.1 2.7-7.1 3.4-3 .7-5.7.8-7.9.3s-4.2-1.7-5.9-3.5c-1.7-1.9-2.9-4.4-3.6-7.6zm8.4-1.8c.6 2.7 1.6 4.6 2.9 5.5 1.3 1 2.8 1.2 4.5.8 1.8-.4 3-1.3 3.8-2.7s.7-3.6 0-6.6c-.6-2.5-1.5-4.3-2.8-5.2-1.3-.9-2.8-1.2-4.6-.8-1.7.4-2.9 1.3-3.6 2.7-.8 1.5-.9 3.5-.2 6.3z" fill="#263238" data-color="5"/>
        <path d="M118.6 117.3c-.7-3-.2-5.7 1.3-8.1 1.6-2.4 4.1-4 7.5-4.8 3.9-.9 7.1-.4 9.6 1.4 2 1.5 3.3 3.5 3.9 6.2.7 3 .2 5.7-1.3 8.1-1.6 2.4-4.1 4-7.6 4.8-3.1.7-5.9.5-8.2-.7-2.7-1.3-4.5-3.7-5.2-6.9zm7.5-1.7c.4 1.7 1 2.9 1.9 3.6.9.7 1.9.9 2.9.6 1.1-.2 1.9-.9 2.4-1.8.5-1 .6-2.4.1-4.2-.4-1.7-1-2.9-1.9-3.5-.9-.7-1.8-.9-2.9-.7-1.1.2-1.9.9-2.4 1.9-.4 1-.5 2.4-.1 4.1z" fill="#263238" data-color="5"/>
        <path d="m148.6 128.6-6.1-27 7-1.6.7 2.9c.7-1.4 1.4-2.5 2.1-3.1 1-.8 2.1-1.4 3.4-1.7 2.6-.6 4.9-.1 6.7 1.6 1.9 1.7 3.2 4 3.8 6.9.7 3.3.5 5.9-.6 8-1.2 2.1-2.9 3.4-5.3 3.9-1.2.3-2.2.3-3.3.1-1-.2-2-.6-2.9-1.2l2.1 9.3-7.6 1.9zm3.6-18.9c.4 1.5.9 2.6 1.8 3.2.8.6 1.7.8 2.7.6.9-.2 1.5-.7 1.9-1.6.4-.9.4-2.1.1-3.9-.4-1.6-.9-2.7-1.7-3.3-.8-.6-1.6-.8-2.5-.6-1 .2-1.7.8-2.1 1.7-.5.9-.6 2.2-.2 3.9z" fill="#263238" data-color="5"/>
        <path d="m169.4 110.3 7.3-2.4c.5.8 1.1 1.3 1.7 1.6.6.3 1.4.3 2.3.1 1-.2 1.7-.6 2.2-1.2.4-.4.5-.9.4-1.3-.1-.5-.5-.9-1.1-1.1-.5-.1-1.6-.1-3.4 0-2.7.1-4.6.1-5.7 0-1.1-.2-2.1-.6-3-1.4-.9-.8-1.5-1.7-1.8-2.9-.3-1.3-.2-2.5.4-3.6.5-1.1 1.4-2 2.6-2.8 1.2-.8 2.9-1.4 5.1-1.9 2.3-.5 4.1-.7 5.3-.6 1.2.1 2.2.4 3.2 1 .9.6 1.8 1.5 2.5 2.6l-6.9 2.3c-.3-.6-.7-1-1.2-1.2-.7-.3-1.4-.3-2.3-.1-.8.2-1.4.5-1.7.9-.3.4-.4.8-.3 1.2.1.5.4.8 1 .9.5.1 1.7.1 3.4-.1 2.6-.3 4.5-.3 5.8-.1 1.3.2 2.4.7 3.3 1.5.9.8 1.4 1.7 1.7 2.9.3 1.1.2 2.3-.3 3.5-.4 1.2-1.3 2.3-2.6 3.3s-3.2 1.7-5.8 2.3c-3.6.8-6.2.9-8 .2-1.9-.6-3.2-1.8-4.1-3.6z" fill="#263238" data-color="5"/>
        <path d="M193.8 85.6h8.2v6.3l-1.5 12.7h-5.1l-1.6-12.7v-6.3zm.4 20.9h7.7v6.8h-7.7v-6.8z" fill="#263238" data-color="5"/>
        <path d="M128.7 171.6h-.2c-4.5-1.7-7.2-3.4-8.6-5.5-1 .2-2.2.1-3.2-.4s-2.1-1.4-2.8-2.6c-.7.5-1.5.7-2.4.4-1-.3-2.1-1.2-3-2.4-.6.4-1.1.5-1.6.4-3-.2-7-6.2-7.3-12.5 0-.3.2-.5.5-.5s.5.2.5.5c.3 6 4.1 11.3 6.4 11.5.4 0 .7-.1.9-.3-1.4-2.4-2.1-5.8-1-9.4.9-3 1.6-4.2 2.5-4 1.7.4 1.5 7 .6 11.3-.2 1-.5 1.7-.8 2.2.8 1.2 1.7 1.9 2.5 2.2.7.2 1.3 0 1.7-.3-.8-1.9-.9-4.6.1-7.9 1.4-4.4 2-4.5 2.3-4.6.2-.1.5 0 .6.2.9 1-.2 7.9-1.3 11.3-.2.4-.3.8-.6 1.2.6 1.2 1.5 2 2.5 2.5.8.4 1.6.5 2.3.4-.1-.2-.2-.4-.2-.6-.8-2.1-.4-4.6 1.2-7.6 1.1-2 1.9-2.9 2.7-2.9.2 0 .7.1 1 .7.9 1.6.2 6.9-1.5 9.6-.4.6-1 1.1-1.6 1.4 1.3 1.8 3.9 3.3 7.9 4.9.3.1.4.4.3.6 0 .1-.2.2-.4.2zm-5.7-16.5s-.6 0-1.8 2.3c-1.4 2.7-1.8 4.9-1.1 6.8.1.2.2.5.3.7.5-.2 1-.6 1.3-1.1 1.4-2.1 2.1-6.5 1.5-8.3-.1-.3-.2-.4-.2-.4zm-7.1-4.2c-.3.5-.7 1.5-1.3 3.5-.9 2.7-.9 4.9-.4 6.5 0-.1.1-.2.1-.3 1.1-3.3 1.7-8.1 1.6-9.7zm-6.6-3.2c-.2.2-.7.8-1.4 3.2-.9 3.2-.4 6.1.7 8.2.2-.4.4-.9.5-1.4 1-4.8.7-9.2.2-10z" fill="#263238" data-color="5"/>
        <path d="M166.7 224c-1.5 0-3.1-.3-4.6-1.2-.2-.1-.3-.4-.2-.7.1-.2.4-.3.7-.2 3.6 2.1 8.2.6 9.1-.9.1-.2.2-.4.1-.7-1.4.1-3.1-.2-5.1-1.5-2.5-1.6-2.7-2.1-2.7-2.4 0-.2.1-.4.3-.5 1-.5 5.5 1.6 7.4 2.8.2.2.5.3.6.5.8-.2 1.5-.6 1.9-1.1.3-.4.5-.7.6-1.1h-.2c-1.6.2-3.2-.5-4.9-2.1-1.2-1.1-1.6-1.8-1.5-2.4 0-.2.2-.5.7-.7 1.4-.3 4.8 1.1 6.2 2.6.3.3.5.7.6 1.2 1.3-.6 2.7-2 4.3-4.3.2-.2.5-.3.7-.1.2.2.3.5.1.7-1.9 2.6-3.5 4.1-5 4.7-.1.7-.4 1.4-.9 2-.5.6-1.2 1.1-2.2 1.4.1.5 0 .9-.3 1.4-.6 1.5-3 2.6-5.7 2.6zm-.9-6.9c.3.2.8.6 1.5 1 1.4.8 2.6 1.2 3.6 1.3-1.6-1-3.8-1.9-5.1-2.3zm3.5-4.3c.1.2.3.6 1.2 1.4 1.5 1.4 2.8 2 4.1 1.8h.3c-.1-.3-.2-.6-.4-.8-1.4-1.6-4.5-2.5-5.2-2.4z" fill="#263238" data-color="5"/>
        <path d="m179.9 222.6-15.6 2.8-14.1-77.2-30.1 5.5-49 87 5.3 28.7 62.8-11.4 4.3 23.5 30.1-5.5-4.3-23.5 15.6-2.8-5-27.1zm-78.8 14.3 26-45.6 7.2 39.5-33.2 6.1z" fill="#407bff" data-color="6"/>
        <path d="M305.4 143c-.6-5.3-1.6-10.1-3.2-14.2-1.5-4.1-3.9-8.2-7-12.2s-7.3-7.4-12.7-10.4c-5.4-2.9-12.4-5-21.2-6.1-18.3-2.4-32.6.9-42.8 9.7-10.2 8.9-17 25.9-20.2 51-1.3 10.2-1.6 19.7-1 28.3.7 8.7 2.3 15.7 4.8 20.9 3.5 7.4 8.3 13.3 14.6 17.8 6.3 4.4 15 7.4 25.9 8.8 19.6 2.6 34.1-1.2 43.6-11.3 9.4-10.1 15.7-27.1 18.8-51.1 1.5-10.6 1.6-21 .4-31.2z" fill="#407bff" data-color="6"/>
        <path d="M251.8 226.4c-2.4-.1-5-.3-7.6-.6-9.2-1.2-16.2-3.5-21.1-6.9-4.8-3.3-8.3-7.7-11-13.4v-.1c-1.9-4-3.2-9.8-3.7-17-.6-7.9-.3-16.7.9-26.1 3.6-27.7 10.9-39.3 16.5-44.1 6.5-5.6 15.2-8.2 26.7-7.8 2.4.1 4.9.3 7.4.6 7.4 1 13.2 2.6 17.4 4.9 4 2.2 7.1 4.7 9.3 7.5 2.4 3.1 4.2 6.2 5.4 9.3 1.2 3.3 2.1 7.2 2.6 11.6 1.1 9.3 1 19-.3 28.7-2.8 21.5-8.1 36.7-15.9 45-5.9 6.1-14.6 8.8-26.6 8.4z" fill="#263238" data-color="5"/>
        <path d="m271.3 143.3.1-3.8-2.3-.8c-.1-1.3-.3-2.6-.6-3.8l2-1.5-1.3-3.6-2.4.2c-.6-1.2-1.3-2.2-2-3.3l1.3-2.1-2.6-2.8-2.2 1.1c-1-.8-2-1.6-3.1-2.3l.4-2.4-3.5-1.6-1.6 1.9c-1.2-.4-2.5-.7-3.8-.9l-.6-2.4-3.8-.1-.8 2.3c-1.3.1-2.6.3-3.8.6l-1.5-2-3.6 1.3.2 2.4c-1.2.6-2.2 1.3-3.3 2l-2.1-1.3-2.8 2.6 1.1 2.2c-.8 1-1.6 2-2.2 3.1l-2.4-.4-1.6 3.5 1.9 1.6c-.4 1.2-.7 2.5-.9 3.8l-2.4.6-.1 3.8 2.3.8c.1 1.3.3 2.6.6 3.8l-2 1.5 1.3 3.6 2.4-.2c.6 1.2 1.3 2.2 2 3.3l-1.3 2.1 2.6 2.8 2.2-1.1c1 .8 2 1.6 3.1 2.3l-.4 2.4 3.5 1.6 1.6-1.9c1.2.4 2.5.7 3.8.9l.6 2.4 3.8.1.8-2.3c1.3-.1 2.6-.3 3.8-.6l1.5 2 3.6-1.3-.2-2.4c1.2-.6 2.2-1.3 3.3-2l2.1 1.3 2.8-2.6-1.1-2.2c.8-1 1.6-2 2.2-3.1l2.4.4 1.6-3.5-1.9-1.6c.4-1.2.7-2.5.9-3.8l2.4-.6zm-25.6 12.3c-8.3-.3-14.8-7.2-14.5-15.5.3-8.3 7.2-14.8 15.5-14.5 8.3.3 14.8 7.2 14.5 15.5-.2 8.2-7.2 14.7-15.5 14.5z" fill="#407bff" data-color="6"/>
        <path d="m287.1 212.9.3-2.6-1.5-.6c0-.9-.1-1.7-.2-2.6l1.4-.9-.7-2.5h-1.7c-.3-.8-.7-1.6-1.2-2.3l.9-1.4-1.6-2-1.5.6c-.6-.6-1.3-1.2-2-1.7l.4-1.6-2.3-1.2-1.2 1.2c-.8-.3-1.6-.6-2.5-.8l-.3-1.6-2.6-.3-.6 1.5c-.9 0-1.7.1-2.6.2l-.9-1.4-2.5.7v1.7c-.8.3-1.6.7-2.3 1.2l-1.4-1-2 1.6.6 1.5c-.6.6-1.2 1.3-1.7 2l-1.6-.4-1.2 2.3 1.2 1.2c-.3.8-.6 1.6-.8 2.5l-1.6.3-.3 2.6 1.5.6c0 .9.1 1.7.2 2.6l-1.4.9.7 2.5h1.7c.3.8.7 1.6 1.2 2.3l-1 1.4 1.6 2 1.5-.6c.6.6 1.3 1.2 2 1.7l-.1 1.5 2.3 1.2 1.2-1.2c.8.3 1.6.6 2.5.8l.3 1.6 2.6.3.6-1.5c.9 0 1.7-.1 2.6-.2l.9 1.4 2.5-.7V224c.8-.3 1.6-.7 2.3-1.2l1.3 1 2-1.6-.6-1.5c.6-.6 1.2-1.3 1.7-2l1.6.4 1.2-2.3-1.2-1.2c.3-.8.6-1.6.8-2.5l1.5-.2zm-12.9-1c-1.2 2.2-3.9 3-6.1 1.8-2.2-1.2-2.9-3.9-1.8-6.1 1.2-2.2 3.9-2.9 6.1-1.8 2.2 1.2 3 3.9 1.8 6.1z" opacity=".3" fill="#407bff" data-color="6"/>
        <path d="m301.3 169.6-3-2.1c-.3-1.1-.7-2.1-1.2-3.1l.8-3-4.3-4.6-3 .6c-.9-.6-2-1-3-1.4l-1.9-3.1-6.3-.2-2.1 3c-1.1.3-2.1.7-3.1 1.2l-3-.8-4.6 4.3.6 3c-.6 1-1 2-1.4 3l-3.1 1.8-.2 6.3 3 2.1c.3 1.1.7 2.1 1.2 3.1l-.8 3 4.3 4.6 3-.6c1 .6 2 1 3 1.4l1.8 3.1 6.3.2 2.1-3c1.1-.3 2.1-.7 3.1-1.2l3 .8 4.6-4.3-.6-3c.6-1 1-2 1.4-3l3.1-1.9.3-6.2zm-19.7 9.7c-3.9-.1-7-3.4-6.9-7.4.1-3.9 3.4-7 7.4-6.9 3.9.1 7 3.4 6.9 7.4-.2 3.9-3.5 7-7.4 6.9z" fill="#ffffff" data-color="7"/>
        <path d="m323 119.1.5-1.3c.4-.2.7-.4 1-.7h1.2l1.4-2-.4-1.1.3-1.2 1-.9-.4-2.3-1.3-.5c-.2-.4-.4-.7-.7-1v-1.2l-2-1.4-1.1.4-1.2-.3-.9-1-2.3.4-.5 1.3c-.4.2-.7.4-1.1.7h-1.2l-1.4 2 .4 1.1-.3 1.2-1 .9.4 2.3 1.3.5c.2.4.4.7.7 1.1v1.2l2 1.4 1.1-.4 1.2.3.9 1 2.4-.5zm-5-6.5c-.3-1.5.7-2.8 2.2-3.1 1.5-.3 2.8.7 3.1 2.2s-.7 2.8-2.2 3.1c-1.5.3-2.9-.7-3.1-2.2z" fill="#407bff" data-color="6"/>
        <path d="m295.6 112.5-.8-.6c1.3-1.6 3.2-3.6 6-5l.5.9c-3 1.5-4.9 3.7-5.7 4.7z" fill="#407bff" data-color="6"/>
        <path d="m303.6 106.8-.4-.9c3.8-1.6 7.7-2.3 11.7-1.9l-.1 1c-3.8-.4-7.6.2-11.2 1.8z" fill="#407bff" data-color="6"/>
        <path d="m301.7 113.7-.8-.6c2.1-3 6.1-5.6 9.9-6.4l.2 1c-3.6.7-7.4 3.2-9.3 6z" fill="#407bff" data-color="6"/>
        <path d="M235.3 210c-.1 0-.3-.1-.4-.2l-2.1-2.2c-1.1-.1-2.1-.3-3.1-.6l-3.3 1.4c-.2.1-.3.1-.5 0l-5.5-3.6c-.1-.1-.2-.3-.2-.4l.1-3.6c-.7-.8-1.3-1.7-1.8-2.7l-2.8-1.1c-.2-.1-.3-.2-.3-.4l-1.3-6.4c0-.2 0-.3.1-.5l2.2-2.1c.1-1.1.3-2.1.6-3.1l-1.4-3.3c-.1-.2-.1-.3 0-.5l3.6-5.5c.1-.1.2-.2.4-.2l3.6.1c.8-.7 1.7-1.3 2.7-1.8l1.1-2.8c.1-.2.2-.3.4-.3l6.4-1.3c.2 0 .3 0 .5.1l2.1 2.2c1.1.1 2.1.3 3.2.6l3.3-1.4c.2-.1.3-.1.5 0l5.5 3.6c.1.1.2.3.2.4l-.1 3.6c.7.8 1.3 1.7 1.8 2.7l2.8 1.1c.2.1.3.2.3.4l1.3 6.4c0 .2 0 .3-.1.5l-2.2 2.1c-.1 1.1-.3 2.1-.6 3.1l1.4 3.3c.1.2.1.3 0 .5l-3.6 5.5c-.1.1-.2.2-.4.2l-3.6-.1c-.8.7-1.7 1.3-2.7 1.8l-1.1 2.8c-.1.2-.2.3-.4.3l-6.6 1.4c.1 0 .1 0 0 0zm-5.6-4h.1c1.1.3 2.2.5 3.3.6.1 0 .2.1.3.2l2 2.1 5.9-1.2 1.1-2.7c0-.1.1-.2.2-.3 1-.5 2-1.1 2.8-1.9.1-.1.2-.1.3-.1l3.5.1 3.3-5-1.4-3.2c0-.1-.1-.2 0-.3.3-1.1.5-2.2.6-3.3 0-.1.1-.2.1-.3l2.1-2-1.2-5.9-2.7-1.1c-.1 0-.2-.1-.3-.2-.5-1-1.1-1.9-1.9-2.8-.1-.1-.1-.2-.1-.3l.1-3.5-5-3.3-3.2 1.4c-.1 0-.2.1-.3 0-1.1-.3-2.2-.5-3.3-.6-.1 0-.2-.1-.3-.1l-2-2.1-5.9 1.2-1.1 2.7c0 .1-.1.2-.2.3-1 .5-1.9 1.1-2.8 1.9-.1.1-.2.1-.3.1l-3.5-.1-3.3 5 1.4 3.2c.1.1.1.3 0 .4-.3 1-.5 2.1-.6 3.2 0 .1-.1.2-.1.3l-2.1 2 1.2 5.9 2.7 1.1c.1 0 .2.1.3.3.5 1 1.1 1.9 1.8 2.8.1.1.1.2.1.3l-.1 3.5 5 3.3 3.2-1.4c.2-.2.2-.2.3-.2zm4.9-3.2c-2.5 0-5.1-.7-7.3-2.2-3-2-5-5-5.7-8.5-.7-3.5 0-7 1.9-10 4.1-6.1 12.4-7.8 18.5-3.8 6.1 4.1 7.8 12.3 3.7 18.5-2.5 3.9-6.8 6-11.1 6zm-10.2-20.1c-1.8 2.7-2.5 6-1.8 9.3.7 3.2 2.5 6 5.3 7.8 5.7 3.8 13.3 2.2 17.1-3.5 3.8-5.7 2.2-13.3-3.5-17.1-5.7-3.8-13.4-2.2-17.1 3.5z" fill="#ffffff" data-color="7"/>
        <path d="m425.8 231.6-15.7-2.1 10.4-77.8-30.3-4.1-73.5 67.6-3.9 28.9 63.3 8.5-3.2 23.7 30.3 4.1 3.2-23.7 15.7 2.1 3.7-27.2zm-79.4-10.7 38.8-35.3-5.3 39.8-33.5-4.5z" fill="#407bff" data-color="6"/>
        <path d="M394.1 279.7c-.4-.1-.5-.3-.5-.6L417 151.2c0-.3.3-.4.6-.4s.5.3.4.6l-23.3 127.9c-.1.3-.3.4-.6.4z" fill="#263238" data-color="5"/>
        <path d="M414.8 153.4c0 .5-.4.8-.8.8-.5 0-.8-.4-.8-.8s.4-.8.8-.8c.5-.1.8.3.8.8z" fill="#263238" data-color="5"/>
        <path d="M411.5 170.7c0 .5-.4.8-.8.8s-.8-.4-.8-.8.4-.8.8-.8c.5-.1.8.3.8.8z" fill="#263238" data-color="5"/>
        <path d="M408.2 188c0 .5-.4.8-.8.8s-.8-.4-.8-.8.4-.8.8-.8c.4-.1.8.3.8.8z" fill="#263238" data-color="5"/>
        <path d="M401.6 206c0 .5-.4.8-.8.8-.5 0-.8-.4-.8-.8s.4-.8.8-.8.8.3.8.8z" fill="#263238" data-color="5"/>
        <path d="M401.5 222.6c0 .5-.4.8-.8.8-.5 0-.8-.4-.8-.8s.4-.8.8-.8c.5-.1.8.3.8.8z" fill="#263238" data-color="5"/>
        <path d="M398.2 239.9c0 .5-.4.8-.8.8s-.8-.4-.8-.8c0-.5.4-.8.8-.8s.8.3.8.8z" fill="#263238" data-color="5"/>
        <path d="M394.8 257.2c0 .5-.4.8-.8.8-.5 0-.8-.4-.8-.8 0-.5.4-.8.8-.8.5-.1.9.3.8.8z" fill="#263238" data-color="5"/>
        <path d="M391.5 274.5c0 .5-.4.8-.8.8s-.8-.4-.8-.8.4-.8.8-.8.8.3.8.8z" fill="#263238" data-color="5"/>
        <path d="M400.8 206.5c-.2 0-.4-.2-.5-.4-.1-.3.1-.5.4-.6l2.5-.5c.3-.1.5.1.6.4.1.3-.1.5-.4.6l-2.5.5h-.1z" fill="#263238" data-color="5"/>
        <path d="M409.1 197.2s-2.2 5.8-3 9.4c-.8 3.5-.8 11.4-.8 11.4" fill="#263238" data-color="5"/>
        <path d="M405.3 218.5c-.3 0-.5-.2-.5-.5s.1-8 .8-11.5c.8-3.5 2.9-9.2 3-9.4.1-.3.4-.4.6-.3.3.1.4.4.3.6 0 .1-2.2 5.8-3 9.3-.7 3.4-.8 11.2-.8 11.3.1.3-.1.5-.4.5z" fill="#263238" data-color="5"/>
        <path d="M222.5 304.8c1.4-22.4-1.2-63.1 40.9-57.7 45.1 5.8 32.2 58.6 32.2 58.6l-73.1-.9z" fill="#263238" data-color="5"/>
        <path fill="#ffffff" d="M269.9 273c0 10.162-8.238 18.4-18.4 18.4-10.162 0-18.4-8.238-18.4-18.4 0-10.162 8.238-18.4 18.4-18.4 10.162 0 18.4 8.238 18.4 18.4z" data-color="7"/>
        <path d="M253.9 254.7c-8.7-1.5-18 4.9-18.9 11.4l34.5 3.2c-1.2-7.5-8.7-13.5-15.6-14.6z" fill="#263238" data-color="5"/>
        <path d="M265.6 272.5c-.2 4.8-2.9 8.6-5.8 8.4s-5.2-4.2-5-9c.2-4.8 2.9-8.6 5.8-8.4 3 .2 5.2 4.2 5 9z" fill="#263238" data-color="5"/>
        <path d="M251.5 292.4c-10.7 0-19.4-8.7-19.4-19.4s8.7-19.4 19.4-19.4 19.4 8.7 19.4 19.4-8.7 19.4-19.4 19.4zm0-36.8c-9.6 0-17.4 7.8-17.4 17.4s7.8 17.4 17.4 17.4c9.6 0 17.4-7.8 17.4-17.4s-7.8-17.4-17.4-17.4z" fill="#407bff" data-color="6"/>
        <path d="M290.5 304.3h-.1c-.3-.1-.4-.3-.4-.6 0-.1 3.2-13.7-.1-27.4-.1-.3.1-.5.4-.6.3-.1.5.1.6.4 3.4 14 .1 27.7.1 27.9-.1.1-.3.3-.5.3z" opacity=".3" fill="#ffffff" data-color="7"/>
        <path d="M287.7 268.8c-.2 0-.4-.1-.5-.3-1.3-2.8-2.9-5.4-4.7-7.7-.2-.2-.1-.5.1-.7.2-.2.5-.1.7.1 1.9 2.3 3.6 5 4.9 7.9.1.3 0 .5-.2.7-.2-.1-.2 0-.3 0z" opacity=".3" fill="#ffffff" data-color="7"/>
        <path d="M128.7 409.9h-.4c-2.8-.1-4.9-2.4-4.9-5.1.1-2.8 2.3-4.9 5.1-4.9h.1c2.9 0 9.8-3.5 24.4-26.4.8-1.2 2.1-2.1 3.5-2.3 1.4-.2 2.9.2 4 1.2 17.9 15.6 37 25.4 37.1 25.5 2.5 1.2 3.4 4.3 2.2 6.7-1.2 2.5-4.3 3.4-6.7 2.2-.8-.4-17.4-8.9-34.8-23.1-12 18.3-21.1 26.2-29.6 26.2z" fill="#263238" data-color="5"/>
        <path d="M159.7 371.5h-.4c-1.6-.2-2.8-1.8-2.5-3.4.7-5-.2-23.6-6.5-38.1-.6-1.3-.1-2.9 1.1-3.7 13.7-9.3 42.9-10.5 44.1-10.5 1.6 0 3 1.2 3.1 2.9.1 1.7-1.2 3-2.9 3.1-.3 0-25.8 1-38.9 8.2 5.6 14.4 6.8 32.4 5.9 38.9-.3 1.5-1.6 2.6-3 2.6z" fill="#263238" data-color="5"/>
        <path d="M164.7 367.6c-2-4.7-11-4.2-16.3-.1-2.8 2.2-6.6 8.6-7 11-.4 2.4 1.2 4.5 4 4.2 3.4-.3 8.2-5.3 8.2-5.3-3.1 3.1.9 5.3 7 .8 3.3-2.5 6.3-5.3 4.1-10.6z" fill="#407bff" data-color="6"/>
        <path d="M336.7 306.2h-.1c-.3-.1-.4-.4-.3-.6 1.3-4.6 2.8-7.5 4.7-9.1-.3-1-.3-2.1.2-3.3.4-1.1 1.2-2.2 2.4-3-.6-.6-.8-1.4-.6-2.4.2-1 1-2.2 2.1-3.2-.5-.5-.6-1.1-.6-1.5 0-3 5.5-7.5 11.8-8.4.3-.1.5.2.6.4 0 .3-.2.5-.4.6-5.9.8-10.9 5.1-10.9 7.4 0 .4.1.7.4.9 2.3-1.6 5.6-2.6 9.3-1.9 3.1.6 4.3 1.2 4.2 2.2-.3 1.8-6.8 2.1-11.2 1.6-1-.1-1.7-.4-2.2-.6-1.1.9-1.8 1.9-2 2.7-.2.7.1 1.3.5 1.6 1.9-1 4.5-1.4 7.9-.6 4.5 1 4.7 1.6 4.8 1.9.1.2 0 .5-.2.7-1 1-7.9.5-11.4-.3-.5-.1-.9-.3-1.2-.5-1.2.7-1.9 1.7-2.3 2.7-.3.8-.4 1.6-.2 2.3l.6-.3c2.1-1 4.6-.8 7.7.5 2 .9 3 1.7 3.1 2.4 0 .2 0 .7-.6 1-1.5 1-6.9.9-9.6-.6-.7-.3-1.2-.9-1.5-1.5-1.6 1.5-3 4.2-4.2 8.4-.4.3-.6.5-.8.5zm5.4-9.4c.3.5.7.9 1.2 1.2 2.3 1.2 6.7 1.5 8.4.8.3-.1.4-.3.4-.3s-.1-.6-2.5-1.6c-2.8-1.2-5-1.4-6.8-.5-.2.2-.5.3-.7.4zm3.4-6.5c.1 0 .2 0 .3.1 3.5.9 8.3 1 9.9.7-.5-.2-1.5-.6-3.6-1-2.9-.7-5-.5-6.6.2zm1.2-5.7c.5.2 1 .3 1.4.3 5 .6 9.4-.1 10-.7-.2-.2-.8-.6-3.3-1.1-3.2-.5-6.1.3-8.1 1.5z" fill="#263238" data-color="5"/>
        <path d="M206.5 408.2c.7-.2.4-.8-.3-.8h-13.5c-25.8-2.7-43.8.9-32.4 1.8 11.4.9-.8.7-9.1 3.8-8.3 3.1 61.7 3.9 68 0 5.8-3.6-21.8-1.8-12.7-4.8z" fill="#263238" data-color="5"/>
        <path fill="#407bff" d="m303.5 412.2-117.8-3.9-4.9-114.2 139.1 3.1-16.4 115z" data-color="6"/>
        <path d="M222.5 410.1c-.3 0-.5-.2-.5-.5l-9.4-114.7c0-.3.2-.5.5-.5s.5.2.5.5l9.4 114.7c0 .2-.2.4-.5.5z" fill="#263238" data-color="5"/>
        <path fill="#407bff" d="m303.5 412.2 31.6-4.8 10-106.2-25.2-4-16.4 115z" data-color="6"/>
        <path opacity=".2" d="m303.5 412.2 31.6-4.8 10-106.2-25.2-4-16.4 115z" fill="#000000" data-color="8"/>
        <path d="m195.7 386.3-2.9-67.9c-.3-7.1 5.4-12.9 12.5-12.8l88.1 2c7.4.2 12.9 6.7 11.9 14l-9.8 68.4c-.9 6.2-6.3 10.7-12.6 10.5l-75.4-2.5c-6.3-.2-11.5-5.3-11.8-11.7z" fill="#263238" data-color="5"/>
        <path d="m213.1 325.4 13.6.4-.1 3.5-8.6-.3-.1 2.6 7.9.3-.1 3.4-7.9-.3-.1 3.2 8.8.3-.1 3.7-13.9-.4.6-16.4z" fill="#ffffff" data-color="7"/>
        <path d="m229.2 342.3.5-16.5 8.5.3c1.6 0 2.8.2 3.6.5.8.3 1.5.8 2 1.6.5.7.7 1.6.7 2.7 0 .9-.2 1.7-.7 2.3-.4.6-1 1.2-1.7 1.6-.4.2-1 .4-1.8.6.6.2 1 .4 1.3.6.2.1.4.4.8.9s.6.8.7 1l2.3 4.8-5.7-.2-2.6-5.1c-.3-.7-.6-1.1-.9-1.3-.4-.3-.8-.4-1.2-.4h-.4l-.2 6.7-5.2-.1zm5.4-9.6 2.1.1c.2 0 .7-.1 1.4-.2.3-.1.6-.2.8-.5.2-.3.3-.6.4-.9 0-.5-.1-.9-.5-1.2-.3-.3-1-.5-1.9-.5l-2.2-.1-.1 3.3z" fill="#ffffff" data-color="7"/>
        <path d="m247.1 342.9.5-16.5 8.5.3c1.6.1 2.8.2 3.6.5.8.3 1.5.8 2 1.6.5.7.7 1.6.7 2.7 0 .9-.2 1.7-.7 2.3-.4.6-1 1.2-1.7 1.6-.4.2-1 .4-1.8.6.6.2 1 .4 1.3.6.2.1.4.4.8.9.3.5.6.8.7 1l2.3 4.8-5.7-.2-2.6-5.1c-.3-.7-.6-1.1-.9-1.3-.4-.3-.8-.4-1.2-.4h-.4l-.2 6.7-5.2-.1zm5.4-9.6 2.1.1c.2 0 .7-.1 1.4-.2.3-.1.6-.2.8-.5.2-.3.3-.6.4-.9 0-.5-.1-.9-.5-1.2-.3-.3-1-.5-1.9-.5l-2.2-.1-.1 3.3z" fill="#ffffff" data-color="7"/>
        <path d="M264.1 335.2c.1-2.7.9-4.8 2.4-6.2 1.5-1.4 3.7-2.1 6.3-2 2.7.1 4.8.9 6.3 2.4 1.4 1.5 2.1 3.6 2 6.2-.1 1.9-.4 3.5-1.1 4.7-.7 1.2-1.7 2.1-2.9 2.8-1.2.6-2.8.9-4.6.9-1.9-.1-3.4-.4-4.6-1-1.2-.6-2.2-1.6-2.9-2.9-.6-1.3-.9-2.9-.9-4.9zm5.1.2c-.1 1.7.2 2.9.8 3.6.6.7 1.4 1.1 2.5 1.2 1.1 0 1.9-.3 2.6-1 .6-.7 1-2 1-3.8 0-1.5-.2-2.7-.8-3.4-.6-.7-1.4-1.1-2.5-1.2-1 0-1.9.3-2.5 1-.7.7-1 1.9-1.1 3.6z" fill="#ffffff" data-color="7"/>
        <path d="M284 373.2c-.4 0-.7-.1-1-.4l-8.6-9.4-9.2 8.4c-.5.5-1.4.5-1.9-.1l-8.6-9.4-9.2 8.4c-.5.5-1.4.5-1.9-.1l-8.6-9.4-9.2 8.4c-.3.2-.6.4-.9.3-.3 0-.7-.2-.9-.4l-8.6-9.4-9.2 8.4c-.5.5-1.4.5-1.9-.1-.5-.5-.5-1.4.1-1.9l10.2-9.3c.5-.5 1.4-.5 1.9.1l8.6 9.4 9.2-8.4c.3-.2.6-.4.9-.3.3 0 .7.2.9.4l8.6 9.4 9.2-8.4c.5-.5 1.4-.5 1.9.1l8.6 9.4 9.2-8.4c.5-.5 1.4-.5 1.9.1L285 371c.5.5.5 1.4-.1 1.9-.3.1-.6.3-.9.3z" fill="#ffffff" data-color="7"/>
        <path fill="#407bff" d="m125.8 414.7-6.3-3-5.6-27.2 3-3.3 8.9 33.5z" data-color="6"/>
        <path fill="#407bff" d="m125.8 414.7 8.3-4.9-7.2-22.4-10-6.2 8.9 33.5z" data-color="6"/>
        <path opacity=".2" d="m125.8 414.7 8.3-4.9-7.2-22.4-10-6.2 8.9 33.5z" fill="#000000" data-color="8"/>
        <path d="M261.9 419.6h-.7c-2.8-.1-4.9-2.4-4.9-5.1.1-2.8 2.4-4.9 5.1-4.9 7.7.3 24-4.5 33.3-13.5.6-.6 1.3-1 2-1.2 15.8-4.7 21.7 4.8 21.9 5.2l-8.6 5.1s0 .1.1.2c-.1-.1-2.3-3-9.5-1.2-11.4 10.6-29.4 15.4-38.7 15.4z" fill="#263238" data-color="5"/>
        <path fill="#407bff" d="m261.4 426.3-18.2-1.2-1.5-33.6 24.5.9-4.8 33.9z" data-color="6"/>
        <path fill="#407bff" d="m261.4 426.3 4.3-4.3 2.6-20.9-2.1-8.7-4.8 33.9z" data-color="6"/>
        <path opacity=".2" d="m261.4 426.3 4.3-4.3 2.6-20.9-2.1-8.7-4.8 33.9z" fill="#000000" data-color="8"/>
        <path d="M366.9 413.5c-.6 0-1.3-.2-1.8-.6-10.4-7.9-24.4-21.9-29.8-35.5-.1-.2-.1-.4-.2-.6-2.6-15.6-5.1-48.5-5.2-49.9-.1-1.7 1.1-3.1 2.8-3.2 1.6-.1 3.1 1.1 3.2 2.8 0 .3 2.6 33.6 5.1 49.1 5.4 13.2 20 26.7 27.8 32.6 1.3 1 1.6 2.9.6 4.2-.7.7-1.6 1.1-2.5 1.1z" fill="#263238" data-color="5"/>
        <path d="M380.8 415.1c-2.3 0-4.9-1.1-7.8-3.1-1.3-1-1.6-2.8-.7-4.2 1-1.3 2.8-1.6 4.2-.7 2.5 1.8 3.8 2 4.3 2 1.7 0 3 1.3 3 3 0 1.6-1.4 3-3 3z" fill="#263238" data-color="5"/>
        <path d="M373.8 411.8c3.2-9.5 16.4-7.7 20.9-6.2 4.5 1.4 8.6 3.2 11.1 4.8 2.5 1.6 2.5 4.3-.8 5.8-4 1.9-14.2.2-14.2.2 5.2 2.3 0 6-9.2 2.4-3-1.2-8.9-3.5-7.8-7z" fill="#407bff" data-color="6"/>
        <path d="M341.9 331c-1.2 8.1-7.9 14.1-13.4 13.3-5.5-.8-5.7-8-4.5-16.1 1.2-8.1 3.3-14 8.8-13.2 5.5.8 10.3 7.9 9.1 16z" fill="#263238" data-color="5"/>
        <path fill="#263238" d="M210.7 297.9a.8.8 0 1 1-1.6 0 .8.8 0 0 1 1.6 0z" data-color="5"/>
        <path d="M218.2 303.8c0 .5-.4.8-.8.8s-.8-.4-.8-.8c0-.5.4-.8.8-.8s.8.3.8.8z" fill="#263238" data-color="5"/>
        <path d="M219.1 400.7c0 .5-.4.8-.8.8-.5 0-.8-.4-.8-.8 0-.5.4-.8.8-.8.5 0 .8.3.8.8z" fill="#263238" data-color="5"/>
        <path d="M226.6 406.6c0 .5-.4.8-.8.8-.5 0-.8-.4-.8-.8 0-.5.4-.8.8-.8.5 0 .8.3.8.8z" fill="#263238" data-color="5"/>
        <path d="M82.5 416.4c-2.4 0-5.6-1.4-7.3-3.9-.2-.2-.1-.5.1-.7.2-.2.5-.1.7.1 1.9 2.7 6 4.1 7.8 3.3.2-.1.3-.2.5-.3-1.6-.8-3.1-2.2-3.5-4.5-.2-1.3-.4-3 .6-3.2 1.4-.3 3.3 3.1 4 5.8.1.5.2.9.1 1.3.6.2 1.3.2 1.8.1.4-.1 1-.2 1.4-.7-1.2-.8-2-2.3-2.3-4.2-.4-2.7-.1-3.2.2-3.4.2-.2.4-.2.7-.1 1.1.5 2.4 4.3 2.6 6.5v.7c.4.2.9.3 1.3.3.9 0 1.7-.2 2.4-.6-.1-.1-.3-.2-.4-.3-1-.9-1.5-2.3-1.3-4.3.1-1.6.5-2.4 1.1-2.7.2-.1.7-.2 1.2.2 1.1.9 2.1 3.6 1.7 5.6-.1.4-.2.8-.5 1.2 1.8.3 4.4-.2 6.6-.7.3-.1.5.1.6.4.1.3-.1.5-.4.6-2.7.7-5.6 1.2-7.7.6-.9.7-2.2 1.2-3.5 1.2-.6 0-1.1-.1-1.6-.3-.4.7-1.1 1.1-2.1 1.3-.7.1-1.4 0-2.2-.2-.2.4-.6.7-1 .9-.4-.1-.9 0-1.6 0zm-.9-8.3c-.1.2-.2.7.1 2 .3 1.8 1.5 3.1 2.8 3.7 0-.2 0-.4-.1-.7-.7-2.8-2.2-4.7-2.8-5zm5.6-.8c0 .4 0 1 .2 2.1.2 1.4.7 2.5 1.5 3.2-.2-2.1-1.1-4.4-1.7-5.3zm6.3-.9s-.4.2-.5 1.9c-.1 1.7.2 2.8.9 3.5.2.2.4.3.6.4.3-.3.5-.7.5-1 .3-1.4-.4-3.6-1.2-4.4-.1-.4-.3-.4-.3-.4z" fill="#263238" data-color="5"/>
        <path fill="#263238" d="m228.9 424 2.7-4.7-2.7-4.7H226l1.6 4.7-1.6 4.7h2.9z" data-color="5"/>
        <path d="M226.2 421.7c-1.3 0-2.4-1.1-2.4-2.5 0-1.3 1.1-2.4 2.4-2.4l-4.6-.9-1.2 3.7 2.1 3.1 3.7-1z" fill="#263238" data-color="5"/>
        <path d="M226.6 414.6h-5.4l-2.7 4.7 2.7 4.7h5.4l2.7-4.7-2.7-4.7zm-2.8 7.1c-1.3 0-2.4-1.1-2.4-2.5 0-1.3 1.1-2.4 2.4-2.4 1.4 0 2.4 1.1 2.4 2.4.1 1.4-1 2.5-2.4 2.5z" fill="#407bff" data-color="6"/>
        <path fill="#407bff" d="m417.9 414.3-2-3.5 2-3.5h2.1l-1.2 3.5 1.2 3.5h-2.1z" data-color="6"/>
        <path d="M419.9 412.6c1 0 1.8-.8 1.8-1.8s-.8-1.8-1.8-1.8l3.4-.7.9 2.8-1.5 2.3-2.8-.8z" fill="#407bff" data-color="6"/>
        <path d="M419.6 407.3h4l2 3.5-2 3.5h-4l-2-3.5 2-3.5zm2 5.3c1 0 1.8-.8 1.8-1.8s-.8-1.8-1.8-1.8-1.8.8-1.8 1.8.8 1.8 1.8 1.8z" fill="#263238" data-color="5"/>
        <path d="M342.9 418.9h4.5c1.2 0 2.1-1 2.1-2.1 0-1.2-1-2.1-2.1-2.1h-4.5c-1.2 0-2.1 1-2.1 2.1s1 2.1 2.1 2.1z" fill="#263238" data-color="5"/>
        <path d="M335.7 414.9c1.1-2.4 3.8-3.4 6-2.4s3.1 3.8 2 6.2-3.8 3.4-6 2.4c-2.2-1.1-3.1-3.9-2-6.2z" fill="#407bff" data-color="6"/>
        <path fill="#263238" d="m336.94 421.003 4.308-9.135 1.266.597-4.307 9.135-1.266-.597z" data-color="5"/>
    </g>
</svg>
