<?xml version="1.0" encoding="UTF-8"?>
<svg data-bbox="7.7 0.4 28.6 36.8" viewBox="0 0 43.9 37.6" xmlns="http://www.w3.org/2000/svg" data-type="shape">
    <g>
        <path d="M21.9 37.2c-.4 0-.7-.1-.9-.4-.5-.6-13.3-14.5-13.3-22.1C7.7 6.8 14.1.4 22 .4s14.3 6.4 14.3 14.3c0 7.6-12.8 21.5-13.4 22.1-.3.2-.6.4-1 .4zm0-34.2c-6.5 0-11.7 5.3-11.7 11.7 0 5 7.8 14.8 11.7 19.3 4-4.5 11.7-14.2 11.7-19.3C33.7 8.2 28.4 3 21.9 3z"/>
        <path d="M21.9 20.5c-3.5 0-6.4-2.9-6.4-6.4 0-3.5 2.9-6.4 6.4-6.4 3.5 0 6.4 2.9 6.4 6.4.1 3.5-2.8 6.4-6.4 6.4zm0-10.3c-2.1 0-3.9 1.7-3.9 3.9 0 2.1 1.7 3.9 3.9 3.9 2.1 0 3.9-1.7 3.9-3.9s-1.7-3.9-3.9-3.9z"/>
    </g>
</svg>
