<?xml version="1.0" encoding="UTF-8"?>
<svg data-bbox="11.094 -37.6 656.006 494" viewBox="0 0 463.2 445.2" xmlns:xlink="http://www.w3.org/1999/xlink" xmlns="http://www.w3.org/2000/svg" data-type="ugc">
    <g>
        <path fill="#3d9be9" d="M353.2 358.5 285.4 41.9 67.8 99l62.4 304.1 223-44.6z"/>
        <path fill="#f6f4ff" d="m271.5 32.8-221 52.9-16.3 34.1 69.2 289.1 244.2-58.4-76.1-317.7z"/>
        <path d="m50.5 85.7-16.3 34.1 16.2 67.7c29.2-64.4 89.3-108.2 146.5-136.9L50.5 85.7z" fill="#e8e7f7"/>
        <path fill="#ffffff" d="M34.2 119.8 62.9 107 50.5 85.7l-16.3 34.1z"/>
        <path fill="#e8e7f7" d="m256.9 93.471 21.69 90.744-81.31 19.435-21.69-90.744 81.31-19.435z"/>
        <path fill="#3e3d5e" d="m245.4 164.9-4.8-.1-5.8 1.7-1 4.4-2.9-3.5-5.9 1.1-4.2 2.1-13.9 12.2 4 17.3 17.2-4 22-5.1 17.2-4-4.1-17.4-17.8-4.7z"/>
        <path fill="#e8e7f7" d="m232.6 195.1 14.2-3.3.3-25.1-13 3-.3 1.2-.8-.9-12.6 2.9 12.2 22.2z"/>
        <path d="m241.5 178.8-4 6.5-6.5-4 1.8-2.8c1.3-2 3.9-2.6 5.9-1.4l2.8 1.7z" fill="#3e3d5e"/>
        <path fill="#3e3d5e" d="m243.7 192.5-7-10.4-1.7 12.4 8.7-2z"/>
        <path d="M244.5 168.9c.7 3.2-3.4 6.8-9.2 8.2s-11.1-.1-11.9-3.3c-.7-3.2 3.4-6.8 9.2-8.2 5.9-1.3 11.2.2 11.9 3.3z" fill="#edb29a"/>
        <path d="m223.5 161.1 1.8 7.9c1 4.3 5.3 7 9.6 6s7-5.3 6-9.6l-1.8-7.9-15.6 3.6z" fill="#edb29a"/>
        <path d="M224.2 164.4c6.7 3.6 12.4 4.4 16.8 4 .2-1 .1-2-.1-3l-1.8-7.9-15.6 3.6.7 3.3z" fill="#d88d87"/>
        <path d="M245 137.1c3 12.9-2.1 25.2-12.8 27.7-10.8 2.5-20.7-6.2-23.8-19.2-3-12.9 3.2-20.4 13.9-22.9 10.8-2.5 19.7 1.4 22.7 14.4z" fill="#edb29a"/>
        <path d="M241.7 129c-4.3-6.5-11.3-8.3-19.4-6.4-7.1 1.7-12.2 5.5-14 11.7 17 10.1 27.8 1.8 33.4-5.3z" fill="#d88d87"/>
        <path d="M206.5 144.6s-1.9-9.7 2.4-14.6l8.1 2.2-7.2 4.7v8.6l-3.3-.9z" fill="#3e3d5e"/>
        <path d="M245.2 135.6s-2.5-9.6-8.6-12l-6.3 5.6 8.6 1 3.8 7.7 2.5-2.3z" fill="#3e3d5e"/>
        <path d="M222.5 144.1c.3 1.3-.5 2.6-1.8 2.8-1.3.3-2.6-.5-2.8-1.8-.3-1.3.5-2.6 1.8-2.8 1.3-.2 2.5.6 2.8 1.8z" fill="#34344f"/>
        <path d="M236.3 140.9c.3 1.3-.5 2.6-1.8 2.8-1.3.3-2.6-.5-2.8-1.8-.3-1.3.5-2.6 1.8-2.8 1.3-.3 2.5.5 2.8 1.8z" fill="#34344f"/>
        <path d="m227.8 140-.4 6.3-3.7.6s.8 3.5 4.1 3.5l-2.3-2.5 3.3-.2-1-7.7z" fill="#d88d87"/>
        <path d="M241.7 141.1c.3 3.7 2.5 6.6 5 6.5 2.5-.1 4.3-3.2 4-6.9-.3-3.7-2.5-6.6-5-6.5-2.5.1-4.3 3.2-4 6.9z" fill="#edb29a"/>
        <path d="M244.3 140.9c-.4 0-.7.1-1.1.3v-.2c-.2-2.4 1-4.5 2.7-4.5 1.6-.1 3.1 1.9 3.3 4.3.1 1.9-.6 3.5-1.6 4.2-.3-2.4-1.7-4.2-3.3-4.1z" fill="#d88d87"/>
        <path d="M212.6 147.9c1.4 3.4.7 7-1.6 8s-5.3-1-6.7-4.4c-1.4-3.4-.7-7 1.6-8s5.3.9 6.7 4.4z" fill="#edb29a"/>
        <path d="M210.2 148.8c.3-.2.7-.2 1.1-.2 0-.1 0-.1-.1-.2-.9-2.3-2.9-3.6-4.4-2.9-1.5.7-2 3-1 5.3.7 1.7 2 2.9 3.3 3-.8-2.1-.4-4.3 1.1-5z" fill="#d88d87"/>
        <path d="M234.6 150.8s-5.1 2.5-11.9 2.3c0 0 2 4.5 7.2 3.4s4.7-5.7 4.7-5.7z" fill="#34344f"/>
        <path d="m223.9 154.7.2-.8-.6-.9c5.2.1 9.3-1.5 10.7-2.1l-.4 1.4.6.7c-.5 1.3-1.7 2.8-4.4 3.4-3.1.7-5-.6-6.1-1.7z" fill="#fbf2eb"/>
        <path d="M233.9 152.7c-.7.5-2 1.2-4.3 1.7-3.3.7-5 .2-5.7-.1l.1-.3c4.3 1.1 9.6-1.5 9.6-1.5l.3.2z" fill="#daceea"/>
        <path d="M216 141s2.6-2 6.5-2.5l-1.1-2.6s-4 1.5-6.1 3.8l.7 1.3z" fill="#3e3d5e"/>
        <path d="M236 136.3s-3.3-.7-6.9.6l-.1-2.9s4.2-.5 7.2.7l-.2 1.6z" fill="#3e3d5e"/>
        <path d="M240 125.9s-9.7 7.7-22.1 8.4c-12.4.7-15.1-4.1-15-5.5 0-1.4 2-2.4 3.6-1.9 0 0-4.3-5.2-1.7-8.6 2.6-3.5 8.1-1.9 10.5 1.7 0 0-1.9-3-.1-4.1 1.8-1.2 4.2-.2 5.2 2.7 0-.1 16.8-4.9 19.6 7.3z" fill="#4c4c72"/>
        <path d="M239.6 124.4c-12.9 4.7-17.5-1.5-19.1-5.9.6-.1 3.1-.8 6.2-.9 1.7 3.2 5.2 6.6 11.6 4.4.5.7.9 1.5 1.3 2.4z" fill="#60608c"/>
        <path fill="#f6f4ff" d="m247.1 166.7-4.6-2.7-1.8.6-5.5 11.5-10-7.9-2 .3-2.8 4.4 9.2 11.8 5.9-7.2 8.5 3.9 3.1-14.7z"/>
        <path fill="#aeaed6" d="m158.771 118.648 3.418 14.298-94.245 22.527-3.418-14.298 94.245-22.527z"/>
        <path fill="#c4c4e8" d="m165.445 144.7 1.046 4.377-94.245 22.527-1.046-4.376 94.245-22.528z"/>
        <path fill="#c4c4e8" d="m168.754 159.204 1.046 4.377-94.245 22.527-1.046-4.377 94.245-22.527z"/>
        <path fill="#c4c4e8" d="m172.04 173.61 1.045 4.377-94.245 22.527-1.046-4.376 94.245-22.527z"/>
        <path fill="#c4c4e8" d="m175.348 188.114 1.046 4.377-94.245 22.527-1.046-4.377 94.245-22.527z"/>
        <path fill="#c4c4e8" d="m178.754 202.595 1.046 4.376L85.555 229.5l-1.046-4.377 94.245-22.527z"/>
        <path fill="#aeaed6" d="M285.9 207.7 207.6 226l3.5 14.3 78.2-18.4-3.4-14.2z"/>
        <path fill="#c4c4e8" d="m292.6 233.7-78.3 18.4 1 4.4 78.3-18.4-1-4.4z"/>
        <path fill="#c4c4e8" d="m295.9 248.2-78.3 18.4 1.1 4.4 78.2-18.4-1-4.4z"/>
        <path fill="#c4c4e8" d="m299.2 262.7-78.3 18.4 1.1 4.3 78.3-18.3-1.1-4.4z"/>
        <path fill="#c4c4e8" d="m302.5 277.1-78.3 18.4 1.1 4.4 78.3-18.4-1.1-4.4z"/>
        <path fill="#c4c4e8" d="M305.8 291.6 227.6 310l1 4.4 78.3-18.4-1.1-4.4z"/>
        <path fill="#ffffff" d="m115.857 241.443 5.602 22.101-22.101 5.602-5.602-22.101 22.101-5.602z"/>
        <path fill="#e4eaf4" d="m117.1 246.4-21 9.9-2.4-9.3 22.2-5.6 1.2 5z"/>
        <path d="M99.3 271.7c-1.1 0-2.1-.8-2.4-1.9l-5.6-22.1c-.3-1.3.5-2.7 1.8-3l22.1-5.6c.6-.2 1.3-.1 1.9.3.6.3 1 .9 1.1 1.5l5.6 22.1c.3 1.3-.5 2.7-1.8 3l-22.1 5.6c-.2 0-.4.1-.6.1zm-2.5-22.9 4.4 17.3 17.3-4.4-4.4-17.3-17.3 4.4z" fill="#9b9bba"/>
        <path d="M125.4 248.3c-1.1 0-2.1-.8-2.4-1.9-.3-1.3.5-2.7 1.8-3l56.3-14.2c1.3-.3 2.7.5 3 1.8.3 1.3-.5 2.7-1.8 3L126 248.2c-.2.1-.4.1-.6.1z" fill="#c4c4e8"/>
        <path d="M127.2 255.6c-1.1 0-2.1-.8-2.4-1.9-.3-1.3.5-2.7 1.8-3l49.2-12.4c1.3-.3 2.7.5 3 1.8.3 1.3-.5 2.7-1.8 3l-49.2 12.4c-.2.1-.4.1-.6.1z" fill="#c4c4e8"/>
        <path d="m110.9 261.4-6.7-5c-.9-.7-1.1-1.9-.4-2.8.7-.9 1.9-1.1 2.8-.4l3 2.3 14.3-26.3c.5-1 1.7-1.3 2.7-.8 1 .5 1.3 1.7.8 2.7l-16.5 30.3z" fill="#3d9be9"/>
        <path fill="#ffffff" d="m125.94 284.04 5.602 22.1-22.101 5.602-5.602-22.101 22.102-5.602z"/>
        <path fill="#e4eaf4" d="m127.2 289.1-21.1 9.9-2.3-9.3 22.1-5.6 1.3 5z"/>
        <path d="M109.4 314.3c-1.1 0-2.1-.8-2.4-1.9l-5.6-22.1c-.3-1.3.5-2.7 1.8-3l22.1-5.6c.6-.2 1.3-.1 1.9.3.6.3 1 .9 1.1 1.5l5.6 22.1c.3 1.3-.5 2.7-1.8 3l-22.1 5.6c-.2.1-.4.1-.6.1zm-2.6-22.8 4.4 17.3 17.3-4.4-4.4-17.3-17.3 4.4z" fill="#9b9bba"/>
        <path d="M135.4 291c-1.1 0-2.1-.8-2.4-1.9-.3-1.3.5-2.7 1.8-3l56.3-14.2c1.3-.3 2.7.5 3 1.8.3 1.3-.5 2.7-1.8 3L136 290.9c-.1.1-.4.1-.6.1z" fill="#c4c4e8"/>
        <path d="M137.3 298.3c-1.1 0-2.1-.8-2.4-1.9-.3-1.3.5-2.7 1.8-3l49.2-12.4c1.3-.3 2.7.5 3 1.8.3 1.3-.5 2.7-1.8 3l-49.2 12.4c-.2.1-.4.1-.6.1z" fill="#c4c4e8"/>
        <path d="m121 304.1-6.7-5c-.9-.7-1.1-1.9-.4-2.8.7-.9 1.9-1.1 2.8-.4l3 2.3 14.3-26.3c.5-1 1.7-1.3 2.7-.8 1 .5 1.3 1.7.8 2.7L121 304.1z" fill="#3d9be9"/>
        <path fill="#ffffff" d="m135.954 326.755 5.601 22.1-22.101 5.602-5.602-22.1 22.102-5.602z"/>
        <path fill="#e4eaf4" d="m137.3 331.7-21.1 9.9-2.3-9.2 22.1-5.6 1.3 4.9z"/>
        <path d="M119.5 357c-1.1 0-2.1-.8-2.4-1.9l-5.6-22.1c-.3-1.3.5-2.7 1.8-3l22.1-5.6c.6-.2 1.3-.1 1.9.3.6.3 1 .9 1.1 1.5l5.6 22.1c.3 1.3-.5 2.7-1.8 3l-22.1 5.6c-.2.1-.4.1-.6.1zm-2.6-22.8 4.4 17.3 17.3-4.4-4.4-17.3-17.3 4.4z" fill="#9b9bba"/>
        <path d="M145.5 333.6c-1.1 0-2.1-.8-2.4-1.9-.3-1.3.5-2.7 1.8-3l56.3-14.2c1.3-.3 2.7.5 3 1.8.3 1.3-.5 2.7-1.8 3l-56.3 14.2c-.2.1-.4.1-.6.1z" fill="#c4c4e8"/>
        <path d="M147.4 341c-1.1 0-2.1-.8-2.4-1.9-.3-1.3.5-2.7 1.8-3l49.2-12.4c1.3-.3 2.7.5 3 1.8.3 1.3-.5 2.7-1.8 3L148 340.9c-.2 0-.4.1-.6.1z" fill="#c4c4e8"/>
        <path d="m131 346.8-6.7-5c-.9-.7-1.1-1.9-.4-2.8.7-.9 1.9-1.1 2.8-.4l3 2.3 14.3-26.3c.5-1 1.7-1.3 2.7-.8 1 .5 1.3 1.7.8 2.7L131 346.8z" fill="#3d9be9"/>
        <path d="M265.1 31.7c-1.2-1.8-3.1-3.1-5.3-3.5-2.2-.4-4.4 0-6.2 1.3-1.8 1.2-3.1 3.1-3.5 5.3l-.6 3.3 2.1-.5.5-2.4c.3-1.6 1.3-3.1 2.6-4 1.4-.9 3.1-1.3 4.7-1 1.6.3 3.1 1.3 4 2.6.9 1.4 1.3 3.1 1 4.7l-3.9 20.1-2.2 11.7c-.4 2.1-2.5 3.5-4.6 3.1-1-.2-1.9-.8-2.5-1.7-.6-.9-.8-1.9-.6-2.9l4.1-21.1-2-.4-4.1 21.1c-.3 1.6 0 3.1.9 4.4.9 1.3 2.2 2.2 3.8 2.5.4.1.8.1 1.1.1 2.8 0 5.3-2 5.8-4.8l2.5-12.8 3.7-19c.4-2.1-.1-4.3-1.3-6.1z" fill="#ff4060"/>
        <path d="M166.3 307.2c44.3 31.4 105.7 20.9 137.1-23.4 9.8-13.8 15.5-29.3 17.4-45.1l-15.9-66.5c-6.5-9.7-14.8-18.4-24.9-25.5-44.3-31.4-105.7-20.9-137.1 23.4-31.3 44.3-20.9 105.7 23.4 137.1z" opacity=".14" fill="#7991a5"/>
        <path d="m310.3 270.3 119.2 71.5c11.5 6.9 15.3 21.9 8.4 33.5-6.9 11.5-21.9 15.3-33.5 8.4-1-.6-2.1-1.4-3-2.1l-107-88.8c-5.9-4.9-6.7-13.6-1.8-19.4 4.4-5.4 12-6.5 17.7-3.1z" fill="#683e38"/>
        <path d="m326.9 285.9 96.8 58.7c8.9 5.3 11.7 16.8 6.4 25.7-5.3 8.9-16.8 11.7-25.7 6.4-.8-.5-1.6-1.1-2.3-1.6l-87.5-72c-4.5-3.7-5.1-10.4-1.4-14.9 3.5-4 9.3-4.9 13.7-2.3z" fill="#784741"/>
        <path fill="none" stroke="#935954" stroke-width="16" stroke-linecap="round" stroke-miterlimit="10" d="m316.5 288.6 98.2 64.4"/>
        <path d="m277.2 289 26.5 18.7c3.1 2.2 7.5 1.5 9.7-1.7l15.8-22.3c2.2-3.1 1.5-7.5-1.7-9.7L301 255.4c-3.1-2.2-7.5-1.5-9.7 1.7l-15.8 22.3c-2.1 3-1.4 7.4 1.7 9.6z" fill="#c7bfbf"/>
        <path d="m316.3 266.1-13.9-9.8c-3.1-2.2-7.5-1.5-9.7 1.7l-15.8 22.3c-2.2 3.1-1.5 7.5 1.7 9.7l13.9 9.8c5.4-4.2 10.3-9.2 14.4-15.1s7.2-12.1 9.4-18.6z" fill="#a19a9a"/>
        <path d="m312.8 263.7-13.9-9.8c-3.1-2.2-7.5-1.5-9.7 1.7l-15.8 22.3c-2.2 3.1-1.5 7.5 1.7 9.7l13.9 9.8c5.4-4.2 10.3-9.2 14.4-15.1 4.2-5.9 7.3-12.2 9.4-18.6z" fill="#706e6e"/>
        <path d="M253.9 303.1c.6 3.4 3.9 5.6 7.3 4.7 15.4-4.1 29.6-13.4 39.6-27.5s14.1-30.5 12.8-46.4c-.3-3.4-3.5-5.9-6.8-5.3l-63.6 10.9 10.7 63.6z" fill="#553530"/>
        <path d="M285.7 263c.9-1.3 2.7-1.6 3.9-.7l8.2 5.8c-1.4 2.4-2.9 4.7-4.5 7s-3.4 4.5-5.2 6.6l-8.2-5.8c-1.3-.9-1.6-2.7-.7-3.9l6.5-9z" fill="#706e6e"/>
        <path fill="#cacbcc" d="M283.53 158.142c35.539 35.537 35.54 93.155.003 128.693s-93.155 35.54-128.694.003-35.539-93.156-.002-128.694 93.155-35.54 128.694-.002z"/>
        <path fill="#9caab5" d="M279.924 161.748c33.547 33.545 33.548 87.935.002 121.481s-87.934 33.547-121.48.002-33.548-87.934-.003-121.48 87.935-33.548 121.481-.003z"/>
        <path fill="#ede8e8" d="M276.813 164.86c31.828 31.826 31.83 83.43.002 115.258s-83.43 31.829-115.258.002-31.83-83.43-.002-115.259 83.43-31.829 115.258-.002z"/>
        <path fill="#706e6e" d="M275.47 166.203c31.086 31.085 31.087 81.485.002 112.571-31.086 31.087-81.485 31.088-112.572.002-31.086-31.085-31.087-81.485-.002-112.571 31.086-31.086 81.485-31.087 112.572-.002z"/>
        <path fill="#e8e7f7" d="M274.197 167.476c30.383 30.382 30.384 79.642.002 110.026-30.383 30.383-79.643 30.384-110.026.002-30.383-30.383-30.384-79.643-.002-110.026 30.383-30.384 79.642-30.385 110.026-.002z"/>
        <path fill="#f6f4ff" d="M270.379 171.294c28.274 28.273 28.275 74.115.001 102.39-28.273 28.273-74.115 28.274-102.389.001s-28.275-74.115-.001-102.389c28.273-28.274 74.114-28.275 102.389-.002z"/>
        <path d="M186 272.9c1.4 8.3 4.1 16 7.8 23.1 12 4.2 25.1 5.4 38.5 3.2 42.3-7.2 70.8-47.4 63.6-89.7-1.4-8.3-4.1-16-7.8-23.1-12-4.2-25.1-5.4-38.5-3.2-42.4 7.2-70.9 47.4-63.6 89.7z" opacity=".2" fill="#e0e5e8"/>
        <path fill="none" stroke="#ffffff" stroke-width="10" stroke-linecap="round" stroke-linejoin="round" stroke-miterlimit="10" d="m314.5 277.3 7.7 5.4"/>
        <path d="M256.2 172.3c-1.5 6-13.3 8.2-26.3 4.8-13-3.3-22.3-10.9-20.8-16.9 1.5-6 13.3-8.2 26.3-4.8 13 3.3 22.3 10.8 20.8 16.9z" opacity=".62" fill="#e0e5e8"/>
        <defs>
            <path transform="rotate(-45.001 219.18 222.513)" id="b5f1465e-bc69-4a1d-8c7e-70d75915584c" d="M297 222.5c0 42.968-34.832 77.8-77.8 77.8-42.968 0-77.8-34.832-77.8-77.8 0-42.968 34.832-77.8 77.8-77.8 42.968 0 77.8 34.832 77.8 77.8z"/>
        </defs>
        <clipPath id="eb21b113-df1a-4bc9-8b4b-8a5bf67c9716">
            <use xlink:href="#b5f1465e-bc69-4a1d-8c7e-70d75915584c" overflow="visible"/>
        </clipPath>
        <g clip-path="url(#eb21b113-df1a-4bc9-8b4b-8a5bf67c9716)">
            <path fill="#e8e7f7" d="m265.825 107.536 28.734 120.214-107.57 25.712-28.734-120.214 107.57-25.712z"/>
            <path fill="#3e3d5e" d="m250.6 202-6.3-.1-7.7 2.3-1.4 5.9-3.8-4.7-7.8 1.4-5.6 2.8-18.4 16.1 5.4 23 22.7-5.3 29.1-6.8 22.7-5.3-5.3-23-23.6-6.3z"/>
            <path fill="#e8e7f7" d="m233.7 242 18.8-4.4.3-33.2-17.2 4-.4 1.7-1-1.3-16.8 3.9 16.3 29.3z"/>
            <path d="M245.4 220.4 240 229l-8.6-5.4 3.1-5c1.3-2 3.9-2.6 5.9-1.4l5 3.2z" fill="#3e3d5e"/>
            <path fill="#3e3d5e" d="m248.4 238.6-9.3-13.8-2.2 16.5 11.5-2.7z"/>
            <path fill="#edb29a" d="M249.416 207.345c.98 4.195-4.46 9.051-12.152 10.847-7.691 1.796-14.72-.149-15.699-4.344s4.46-9.051 12.152-10.847c7.69-1.796 14.72.149 15.699 4.344z"/>
            <path d="m221.5 197 2.4 10.5c1.3 5.7 7 9.3 12.8 7.9 5.7-1.3 9.3-7 7.9-12.8l-2.4-10.5-20.7 4.9z" fill="#edb29a"/>
            <path d="M222.5 201.4c8.9 4.7 16.4 5.8 22.3 5.3.2-1.3.2-2.7-.2-4l-2.4-10.5-20.7 4.8 1 4.4z" fill="#d88d87"/>
            <path d="M250 165.2c4 17.1-2.7 33.4-17 36.7-14.2 3.3-27.4-8.2-31.5-25.4-4-17.1 4.2-27.1 18.4-30.4 14.4-3.3 26.1 2 30.1 19.1z" fill="#edb29a"/>
            <path d="M245.7 154.6c-5.7-8.6-14.9-10.9-25.6-8.4-9.4 2.2-16.2 7.3-18.5 15.5 22.3 13.2 36.7 2.2 44.1-7.1z" fill="#d88d87"/>
            <path d="M199.1 175.2s-2.6-12.8 3.1-19.3l10.8 2.9-9.5 6.3v11.4l-4.4-1.3z" fill="#3e3d5e"/>
            <path d="M250.3 163.2s-3.4-12.6-11.4-15.9l-8.3 7.4 11.3 1.4 5.1 10.2 3.3-3.1z" fill="#3e3d5e"/>
            <path d="M220.3 174.6c.4 1.7-.7 3.4-2.3 3.8-1.7.4-3.4-.7-3.8-2.3-.4-1.7.7-3.4 2.3-3.8 1.7-.5 3.4.6 3.8 2.3z" fill="#34344f"/>
            <path d="M238.6 170.3c.4 1.7-.7 3.4-2.3 3.8-1.7.4-3.4-.7-3.8-2.3-.4-1.7.7-3.4 2.3-3.8 1.7-.5 3.4.6 3.8 2.3z" fill="#34344f"/>
            <path d="m227.3 169-.5 8.3-4.9.8s1.1 4.7 5.5 4.7l-3-3.4 4.4-.3-1.5-10.1z" fill="#d88d87"/>
            <path d="M245.6 170.5c.3 4.9 3.3 8.7 6.6 8.6 3.3-.1 5.7-4.2 5.4-9.1-.3-4.9-3.3-8.7-6.6-8.6-3.3.1-5.7 4.2-5.4 9.1z" fill="#edb29a"/>
            <path d="M249.1 170.2c-.5 0-1 .2-1.4.5v-.2c-.2-3.2 1.4-5.9 3.5-6 2.2-.1 4.1 2.5 4.3 5.7.2 2.5-.7 4.6-2.1 5.6-.3-3.3-2.2-5.7-4.3-5.6z" fill="#d88d87"/>
            <path d="M207.2 179.5c1.9 4.5.9 9.3-2.1 10.6-3 1.3-7-1.3-8.8-5.8-1.9-4.5-.9-9.3 2.1-10.6 3-1.3 6.9 1.2 8.8 5.8z" fill="#edb29a"/>
            <path d="M204 180.7c.5-.2 1-.3 1.5-.2 0-.1-.1-.2-.1-.2-1.2-3-3.8-4.7-5.8-3.8-2 .9-2.6 4-1.4 7 .9 2.3 2.7 3.8 4.4 4-1.2-2.9-.6-5.9 1.4-6.8z" fill="#d88d87"/>
            <path d="M236.3 183.3s-6.8 3.4-15.8 3c0 0 2.7 6 9.6 4.6 6.8-1.4 6.2-7.6 6.2-7.6z" fill="#34344f"/>
            <path d="m222.1 188.5.2-1-.8-1.2c6.9.1 12.4-2 14.2-2.7l-.6 1.9.7.9c-.7 1.8-2.2 3.8-5.8 4.5-3.9.8-6.4-.8-7.9-2.4z" fill="#fbf2eb"/>
            <path d="M235.4 185.9c-1 .7-2.7 1.6-5.6 2.2-4.4.9-6.6.2-7.5-.2l.1-.4c5.7 1.4 12.8-2 12.8-2l.2.4z" fill="#daceea"/>
            <path d="M211.6 170.4s3.5-2.7 8.6-3.4l-1.5-3.5s-5.3 1.9-8.1 5.1l1 1.8z" fill="#3e3d5e"/>
            <path d="M238.2 164.2s-4.3-.9-9.2.8l-.2-3.8s5.6-.6 9.5.9l-.1 2.1z" fill="#3e3d5e"/>
            <path d="M243.5 150.5s-12.8 10.3-29.3 11.1c-16.5.9-19.9-5.4-19.9-7.3 0-1.9 2.6-3.2 4.7-2.5 0 0-5.7-6.8-2.2-11.4 3.5-4.6 10.8-2.6 13.8 2.2 0 0-2.5-3.9-.1-5.4 2.4-1.5 5.6-.3 6.9 3.6 0-.1 22.4-6.5 26.1 9.7z" fill="#4c4c72"/>
            <path d="M242.9 148.4c-17.1 6.2-23.1-1.9-25.3-7.7.7-.2 4.1-1 8.2-1.2 2.3 4.2 6.8 8.8 15.4 5.8.7.9 1.2 1.9 1.7 3.1z" fill="#60608c"/>
            <path fill="#f6f4ff" d="m252.8 204.4-6-3.6-2.5.9-7.2 15.2-13.3-10.4-2.6.3-3.8 5.9 12.3 15.6 7.8-9.5 11.2 5.1 4.1-19.5z"/>
            <path fill="#aeaed6" d="m135.976 140.742 4.51 18.868-124.882 29.85-4.51-18.868 124.882-29.85z"/>
            <path fill="#c4c4e8" d="m144.735 175.265 1.395 5.836-124.882 29.85-1.395-5.836 124.882-29.85z"/>
            <path fill="#c4c4e8" d="m149.146 194.463 1.395 5.835-124.882 29.85-1.395-5.835 124.882-29.85z"/>
            <path fill="#c4c4e8" d="m153.534 213.563 1.395 5.836-124.882 29.85-1.395-5.836 124.882-29.85z"/>
            <path fill="#c4c4e8" d="m157.945 232.76 1.395 5.837-124.882 29.85-1.395-5.836 124.882-29.85z"/>
            <path fill="#c4c4e8" d="m162.333 251.861 1.395 5.836-124.882 29.85-1.395-5.836 124.882-29.85z"/>
            <path fill="#aeaed6" d="M304.2 258.7 200.6 283l4.5 18.9 103.7-24.3-4.6-18.9z"/>
            <path fill="#c4c4e8" d="m313 293.2-103.6 24.3 1.4 5.9L314.4 299l-1.4-5.8z"/>
            <path fill="#c4c4e8" d="m317.4 312.4-103.6 24.3 1.4 5.8 103.6-24.3-1.4-5.8z"/>
            <path fill="#c4c4e8" d="m321.8 331.5-103.6 24.3 1.4 5.9 103.6-24.4-1.4-5.8z"/>
            <path fill="#c4c4e8" d="M326.2 350.7 222.6 375l1.4 5.8 103.6-24.3-1.4-5.8z"/>
            <path fill="#c4c4e8" d="M330.6 369.8 227 394.1l1.4 5.9L332 375.6l-1.4-5.8z"/>
            <path fill="#ffffff" d="m79.028 303.357 7.42 29.274-29.275 7.42-7.42-29.275 29.275-7.42z"/>
            <path fill="#e4eaf4" d="m80.7 309.9-27.8 13.2-3.1-12.3 29.3-7.4 1.6 6.5z"/>
            <path d="M57.2 343.4c-1.5 0-2.8-1-3.2-2.5l-7.4-29.3c-.4-1.8.6-3.6 2.4-4l29.3-7.4c.9-.2 1.8-.1 2.5.4.8.4 1.3 1.2 1.5 2l7.4 29.3c.4 1.8-.6 3.6-2.4 4L58 343.3c-.3.1-.5.1-.8.1zm-3.4-30.2 5.8 22.9 22.9-5.8-5.8-22.9-22.9 5.8z" fill="#9b9bba"/>
            <path d="M91.7 312.5c-1.5 0-2.8-1-3.2-2.5-.4-1.8.6-3.6 2.4-4l74.6-18.9c1.8-.4 3.6.6 4 2.4.4 1.8-.6 3.6-2.4 4l-74.6 18.9c-.3.1-.6.1-.8.1z" fill="#c4c4e8"/>
            <path d="M94.1 322.2c-1.5 0-2.8-1-3.2-2.5-.4-1.8.6-3.6 2.4-4l65.2-16.5c1.8-.4 3.6.6 4 2.4.4 1.8-.6 3.6-2.4 4l-65.2 16.5c-.2.1-.5.1-.8.1z" fill="#c4c4e8"/>
            <path d="m72.5 329.8-8.9-6.7c-1.2-.9-1.4-2.5-.5-3.7.9-1.2 2.5-1.4 3.7-.5l4 3 19-34.9c.7-1.3 2.3-1.8 3.6-1.1 1.3.7 1.8 2.3 1.1 3.6l-22 40.3z" fill="#4edd70"/>
            <path fill="#ffffff" d="m92.333 359.865 7.42 29.274-29.274 7.42-7.42-29.275 29.274-7.42z"/>
            <path fill="#e4eaf4" d="m94.1 366.4-27.9 13.2-3.1-12.3 29.3-7.4 1.7 6.5z"/>
            <path d="M70.5 399.9c-1.5 0-2.8-1-3.2-2.5l-7.4-29.3c-.4-1.8.6-3.6 2.4-4l29.3-7.4c.9-.2 1.8-.1 2.5.4.8.4 1.3 1.2 1.5 2l7.4 29.3c.4 1.8-.6 3.6-2.4 4l-29.3 7.4c-.2.1-.5.1-.8.1zm-3.4-30.2 5.8 22.9 22.9-5.8-5.8-22.9-22.9 5.8z" fill="#9b9bba"/>
            <path d="M105 369c-1.5 0-2.8-1-3.2-2.5-.4-1.8.6-3.6 2.4-4l74.6-18.9c1.8-.4 3.6.6 4 2.4.4 1.8-.6 3.6-2.4 4l-74.6 18.9c-.3.1-.5.1-.8.1z" fill="#c4c4e8"/>
            <path d="M107.4 378.7c-1.5 0-2.8-1-3.2-2.5-.4-1.8.6-3.6 2.4-4l65.2-16.5c1.8-.4 3.6.6 4 2.4.4 1.8-.6 3.6-2.4 4l-65.2 16.5c-.2.1-.5.1-.8.1z" fill="#c4c4e8"/>
            <path d="m85.8 386.3-8.9-6.7c-1.2-.9-1.4-2.5-.5-3.7.9-1.2 2.5-1.4 3.7-.5l4 3 19-34.9c.7-1.3 2.3-1.8 3.6-1.1 1.3.7 1.8 2.3 1.1 3.6l-22 40.3z" fill="#4edd70"/>
            <path fill="#ffffff" d="m105.734 416.35 7.42 29.274-29.275 7.42-7.42-29.275 29.275-7.42z"/>
            <path fill="#e4eaf4" d="M107.4 422.9 79.5 436l-3.1-12.2 29.3-7.4 1.7 6.5z"/>
            <path d="M83.9 456.4c-1.5 0-2.8-1-3.2-2.5l-7.4-29.3c-.4-1.8.6-3.6 2.4-4l29.3-7.4c.9-.2 1.8-.1 2.5.4.8.4 1.3 1.2 1.5 2l7.4 29.3c.4 1.8-.6 3.6-2.4 4l-29.3 7.4c-.3.1-.6.1-.8.1zm-3.4-30.2 5.8 22.9 22.9-5.8-5.8-22.9-22.9 5.8z" fill="#9b9bba"/>
            <path d="M118.3 425.5c-1.5 0-2.8-1-3.2-2.5-.4-1.8.6-3.6 2.4-4l74.6-18.9c1.8-.4 3.6.6 4 2.4.4 1.8-.6 3.6-2.4 4l-74.6 18.9c-.2 0-.5.1-.8.1z" fill="#c4c4e8"/>
            <path d="M120.8 435.2c-1.5 0-2.8-1-3.2-2.5-.4-1.8.6-3.6 2.4-4l65.2-16.5c1.8-.4 3.6.6 4 2.4.4 1.8-.6 3.6-2.4 4l-65.2 16.5c-.3 0-.5.1-.8.1z" fill="#c4c4e8"/>
            <path d="m99.2 442.8-8.9-6.7c-1.2-.9-1.4-2.5-.5-3.7.9-1.2 2.5-1.4 3.7-.5l4 3 19-34.9c.7-1.3 2.3-1.8 3.6-1.1 1.3.7 1.8 2.3 1.1 3.6l-22 40.3z" fill="#4edd70"/>
        </g>
        <path fill="none" stroke="#4c4c72" stroke-width="4" stroke-miterlimit="10" d="M275.47 166.203c31.086 31.085 31.087 81.485.002 112.571-31.086 31.087-81.485 31.088-112.572.002-31.086-31.085-31.087-81.485-.002-112.571s81.485-31.087 112.572-.002z"/>
        <path fill="none" d="M667.1-37.6V359H11.8V-37.6h655.3z"/>
    </g>
</svg>
