<?xml version="1.0" encoding="UTF-8"?>
<svg data-bbox="0.6 0.3 41.606 41.7" viewBox="0 0 42.5 42.5" xmlns="http://www.w3.org/2000/svg" data-type="color">
    <g>
        <path d="M32.6 10.5c-.1-.2-.3-.4-.5-.5-.4-.3-.9-.4-1.4-.4-.3 0-.6.1-.8.2-.2.1-.4.2-.5.4-.2.2-.3.4-.5.6-.3.6-.3 1.3 0 1.9.1.2.2.4.4.5.5.5 1.1.7 1.7.6.9-.1 1.7-.8 1.9-1.7v-.5c0-.3 0-.4-.1-.7 0 0-.1-.3-.2-.4z" fill-rule="evenodd" clip-rule="evenodd" fill="#3a3a3a" data-color="1"/>
        <path d="M31.7.3H11.1C5.3.3.6 5 .6 10.8v20.6C.6 37.3 5.3 42 11.1 42h20.6c5.8 0 10.5-4.8 10.5-10.5V10.8C42.4 4.9 37.6.3 31.7.3zm4.1 28.1c-.1 1.7-.3 2.9-.8 3.9-.3.6-.6 1.1-1.2 1.6-.5.5-.9.8-1.4 1-.9.5-1.9.7-3.2.8-.7.1-2 .1-3.4.1H17c-1.1 0-2.8-.1-3.5-.1-1.5-.1-2.7-.4-3.6-1-.6-.3-1.2-.9-1.7-1.5-.8-1-1.2-2.3-1.4-3.9-.1-.6-.1-1.9-.1-3.4v-9.6c0-1.1.1-2.2.1-2.8.1-1.5.4-2.6.9-3.6.3-.5.6-.9 1.1-1.4.7-.6 1.2-1 2.1-1.4.9-.4 1.9-.5 3.4-.6 1.8-.1 3-.1 7.6-.1 4.2 0 4.7 0 6.3.1 1.4.1 2.3.2 3.1.4 1 .3 1.8.7 2.5 1.4.6.5 1 1.1 1.3 1.8.5 1 .7 2.2.8 3.9.1 1.8.1 2.2.1 7.1-.1 5.1-.1 5.5-.2 7.3z" fill-rule="evenodd" clip-rule="evenodd" fill="#3a3a3a" data-color="1"/>
        <path d="M29.5 17.2c-1-2.1-2.8-3.7-5-4.6-1-.4-2.1-.6-3.2-.6s-2.2.2-3.2.6c-2.2.8-4 2.4-5 4.5-.6 1.1-.9 2.2-1 3.5v1.3c.1 1.8.7 3.4 1.8 4.9.5.6 1.1 1.2 1.7 1.7 1.7 1.4 3.9 2.1 6.2 2 1.1-.1 2.2-.3 3.2-.7l1-.5c1.9-1.1 3.4-3 4.1-5.1.2-.7.4-1.4.4-2.1v-1.5c-.2-1.3-.5-2.3-1-3.4zm-2.9 6.7c-.6 1.2-1.7 2.3-2.9 2.8-.9.4-1.7.5-2.7.5-1.2 0-2.5-.5-3.4-1.3-1-.8-1.8-1.9-2.1-3.2-.2-.7-.2-1.5-.1-2.3.2-1.6 1-3 2.3-3.9.9-.7 2-1.1 3.1-1.2H22c1.8.2 3.3 1.2 4.3 2.6 1.1 1.8 1.3 4.1.3 6z" fill-rule="evenodd" clip-rule="evenodd" fill="#3a3a3a" data-color="1"/>
    </g>
</svg>
