<?xml version="1.0" encoding="UTF-8"?>
<svg data-bbox="0 0 53 51.7" viewBox="0 0 65.7 58.4" xmlns="http://www.w3.org/2000/svg" data-type="ugc">
    <g>
        <defs>
            <linearGradient gradientUnits="userSpaceOnUse" gradientTransform="matrix(53 0 0 -53 68.7 35405)" y2="667.8" x2="-.3" y1="667.8" x1="-1.3" id="49d21e40-01eb-49d8-9840-c1a0c9617727">
                <stop stop-color="#29aae2" offset="0"/>
                <stop stop-color="#e32085" offset=".5"/>
                <stop stop-color="#f8e928" offset="1"/>
            </linearGradient>
            <clipPath id="95013c71-0552-4e84-b263-ed18b1e7951e">
                <path d="M1.2 25.8c0-13.6 11-24.6 24.6-24.6s26 11.7 26 26v23.4h-26c-13.6 0-24.7-11.1-24.7-24.7M7.6 7.6C2.7 12.4 0 18.9 0 25.8s2.7 13.4 7.6 18.3 11.4 7.6 18.3 7.6h26.6c.3 0 .6-.3.6-.6v-24c0-7.2-2.8-14.1-7.9-19.2C39.9 2.8 33.1 0 25.8 0S12.4 2.7 7.6 7.6"/>
            </clipPath>
        </defs>
        <g clip-path="url(#95013c71-0552-4e84-b263-ed18b1e7951e)">
            <path fill="url(#49d21e40-01eb-49d8-9840-c1a0c9617727)" d="M53 0v51.7H0V0z"/>
        </g>
    </g>
</svg>
