<?xml version="1.0" encoding="UTF-8"?>
<svg id="Camada_3" xmlns="http://www.w3.org/2000/svg" xmlns:xlink="http://www.w3.org/1999/xlink" viewBox="0 0 130.45 43.37">
  <defs>
    <style>
      .cls-1 {
        fill: #fff;
      }

      .cls-2 {
        fill: url(#Gradiente_sem_nome_3);
      }
    </style>
    <linearGradient id="Gradiente_sem_nome_3" data-name="Gradiente sem nome 3" x1="-.06" y1="425.97" x2="40.67" y2="425.97" gradientTransform="translate(0 445.77) scale(1 -1)" gradientUnits="userSpaceOnUse">
      <stop offset="0" stop-color="#29aae2"/>
      <stop offset=".49" stop-color="#e32085"/>
      <stop offset="1" stop-color="#f8e928"/>
    </linearGradient>
  </defs>
  <path class="cls-2" d="M40.23,39.66h-20.42c-5.3,0-10.29-2.06-14.05-5.82C2.01,30.09-.06,25.1-.06,19.8S2.01,9.51,5.75,5.75C9.5,2,14.5-.06,19.8-.06c5.57,0,10.81,2.17,14.75,6.11,3.94,3.94,6.11,9.18,6.11,14.75v18.42c0,.25-.19.44-.44.44ZM19.8.83C9.34.83.83,9.35.83,19.8s8.52,18.97,18.97,18.97h19.98v-17.96C39.77,9.79,30.82.83,19.8.83Z"/>
  <g>
    <rect class="cls-1" x="50.07" y="28.58" width="1.08" height="11.69"/>
    <path class="cls-1" d="M65.34,31.42c-1.52,0-2.79.7-3.43,1.87-.51-1.21-1.62-1.87-3.13-1.87-1.37,0-2.49.56-3.14,1.54v-1.47h-1.03v8.78h1.07v-4.67c0-1.97,1.15-3.19,2.99-3.19,1.64,0,2.54,1,2.54,2.82v5.04h1.07v-4.67c0-1.97,1.15-3.19,2.99-3.19,1.64,0,2.54,1,2.54,2.82v5.04h1.07v-5.11c0-2.37-1.29-3.74-3.55-3.74Z"/>
    <path class="cls-1" d="M76.42,31.43h-.02c-1.41,0-2.64.64-3.37,1.74v-1.69h-1.03v11.95h1.07v-4.79c.74,1.07,1.96,1.69,3.34,1.69,2.52,0,4.34-1.87,4.34-4.45,0-1.27-.45-2.42-1.26-3.23-.79-.78-1.88-1.22-3.07-1.22ZM79.69,35.88c0,2.01-1.4,3.47-3.32,3.47s-3.3-1.43-3.3-3.47,1.36-3.47,3.3-3.47,3.32,1.46,3.32,3.47Z"/>
    <path class="cls-1" d="M84.06,32.97v-1.49h-1.03v8.78h1.07v-4.57c0-2.03,1.08-3.24,2.9-3.24.02,0,.05,0,.08,0,.04,0,.08.01.12.01h.12v-1.05h-.12c-1.43,0-2.51.53-3.14,1.55Z"/>
    <path class="cls-1" d="M92.53,31.42c-2.44,0-4.21,1.87-4.21,4.45s1.86,4.45,4.52,4.45c1.36,0,2.57-.52,3.32-1.43l.07-.08-.64-.73-.09.11c-.61.74-1.54,1.14-2.63,1.14-1.93,0-3.34-1.29-3.48-3.15h7.33v-.12s0-.08,0-.12c0-.04,0-.07,0-.11,0-2.56-1.76-4.42-4.19-4.42ZM89.39,35.31c.18-1.73,1.46-2.92,3.14-2.92s2.96,1.19,3.13,2.92h-6.26Z"/>
    <path class="cls-1" d="M101.58,35.44c-1.33-.25-2.47-.47-2.47-1.57,0-.94.83-1.48,2.28-1.48.95,0,1.83.26,2.49.75l.11.08.5-.87-.09-.07c-.68-.51-1.88-.86-3-.86-2.04,0-3.36.97-3.36,2.46,0,1.9,1.72,2.22,3.24,2.51,1.29.24,2.41.45,2.41,1.49,0,.98-.8,1.48-2.39,1.48-1.33,0-2.44-.54-2.99-1l-.11-.1-.5.87.07.07c.74.67,2.14,1.12,3.49,1.12,2.15,0,3.49-.94,3.49-2.46,0-1.83-1.69-2.15-3.18-2.43Z"/>
    <path class="cls-1" d="M109.39,35.44c-1.33-.25-2.47-.47-2.47-1.57,0-.94.83-1.48,2.28-1.48.95,0,1.83.26,2.49.75l.11.08.5-.87-.09-.07c-.68-.51-1.88-.86-3-.86-2.04,0-3.36.97-3.36,2.46,0,1.9,1.72,2.22,3.24,2.51,1.29.24,2.41.45,2.41,1.49,0,.98-.8,1.48-2.39,1.48-1.33,0-2.44-.54-2.99-1l-.11-.1-.51.87.08.07c.74.67,2.14,1.12,3.49,1.12,2.15,0,3.49-.94,3.49-2.46,0-1.83-1.69-2.15-3.18-2.43Z"/>
    <path class="cls-1" d="M118.07,31.42c-2.55,0-4.39,1.87-4.39,4.45s1.85,4.45,4.39,4.45,4.39-1.87,4.39-4.45-1.85-4.45-4.39-4.45ZM121.38,35.88c0,1.02-.35,1.93-.98,2.56-.59.59-1.41.91-2.3.91h-.02c-1.94,0-3.3-1.43-3.3-3.47s1.36-3.47,3.3-3.47,3.3,1.43,3.3,3.47Z"/>
    <path class="cls-1" d="M127.33,35.44c-1.33-.25-2.47-.47-2.47-1.57,0-.94.83-1.48,2.28-1.48.95,0,1.83.26,2.49.75l.11.08.5-.87-.09-.07c-.68-.51-1.88-.86-3-.86-2.04,0-3.36.97-3.36,2.46,0,1.9,1.72,2.22,3.24,2.51,1.29.24,2.41.45,2.41,1.49,0,.98-.8,1.48-2.39,1.48-1.33,0-2.44-.54-2.99-1l-.11-.1-.5.87.07.07c.73.67,2.13,1.12,3.49,1.12,2.15,0,3.49-.94,3.49-2.46,0-1.83-1.69-2.15-3.18-2.43Z"/>
  </g>
  <g>
    <path class="cls-1" d="M55.03,9.49c1.48,0,2.66.44,3.61,1.34l.09.09.36-.41-.08-.08c-.96-.96-2.38-1.49-3.98-1.49-3.42,0-5.99,2.53-5.99,5.89s2.58,5.89,5.99,5.89c1.59,0,3.01-.53,3.98-1.5l.08-.08-.36-.41-.09.09c-.96.91-2.14,1.35-3.61,1.35-3.09,0-5.42-2.29-5.42-5.33s2.33-5.33,5.42-5.33Z"/>
    <path class="cls-1" d="M73.23,13.67v-1.7h-.58v8.69h.58v-4.67c0-2.19,1.16-3.5,3.1-3.5h.23v-.58h-.12c-1.48,0-2.59.62-3.2,1.75Z"/>
    <path class="cls-1" d="M82.8,19.67c-.33.31-.8.49-1.32.49-1.07,0-1.61-.58-1.61-1.72v-5.91h2.86v-.56h-2.85v-1.85h-.58v1.85h-1.64v.56h1.63v5.99c0,1.38.81,2.2,2.17,2.2.71,0,1.36-.24,1.74-.64l.08-.09-.4-.4-.09.08Z"/>
    <path class="cls-1" d="M86.62,10.41c.03-.61.31-.98.76-.98.3,0,.54.22.83.48.33.3.7.64,1.24.65.75,0,1.28-.6,1.31-1.5v-.13s-.55,0-.55,0v.12c-.03.58-.32.94-.76.94-.3,0-.54-.22-.82-.48-.33-.3-.7-.65-1.24-.65-.76,0-1.28.6-1.32,1.53v.13s.55,0,.55,0v-.12Z"/>
    <path class="cls-1" d="M88.41,11.92c-2.45,0-4.23,1.85-4.23,4.39s1.78,4.4,4.23,4.4,4.23-1.85,4.23-4.4-1.78-4.39-4.23-4.39ZM92.06,16.31c0,2.23-1.54,3.85-3.65,3.85s-3.65-1.62-3.65-3.85,1.54-3.82,3.65-3.82,3.65,1.61,3.65,3.82Z"/>
    <path class="cls-1" d="M98.18,11.92c-2.34,0-4.03,1.85-4.03,4.39s1.83,4.4,4.34,4.4c1.29,0,2.46-.52,3.21-1.43l.07-.09-.41-.41-.09.11c-.6.8-1.61,1.25-2.77,1.25-2.15,0-3.72-1.56-3.78-3.72h7.51v-.21c0-2.5-1.7-4.31-4.04-4.31ZM101.65,15.87h-6.93c.16-1.97,1.6-3.39,3.46-3.39s3.31,1.42,3.48,3.39Z"/>
    <path class="cls-1" d="M106.98,16.05c-1.38-.27-2.68-.53-2.68-1.84,0-1.11.92-1.74,2.52-1.74.97,0,1.91.3,2.52.79l.1.08.35-.46-.09-.08c-.66-.54-1.79-.89-2.87-.89-2.3,0-3.11,1.24-3.11,2.3,0,1.81,1.68,2.13,3.16,2.42,1.35.26,2.63.51,2.63,1.77,0,1.45-1.46,1.75-2.69,1.75-1.41,0-2.49-.55-3.02-1.07l-.1-.1-.34.45.07.08c.68.71,2.02,1.19,3.34,1.19h.04c2.04,0,3.26-.86,3.26-2.31,0-1.74-1.64-2.06-3.09-2.34Z"/>
    <path class="cls-1" d="M123.46,16.23c0-2.5-1.7-4.31-4.04-4.31s-4.03,1.85-4.03,4.39,1.83,4.4,4.34,4.4c1.29,0,2.46-.52,3.21-1.43l.07-.09-.41-.41-.09.11c-.6.8-1.61,1.25-2.77,1.25-2.15,0-3.72-1.56-3.78-3.72h7.51v-.21ZM122.89,15.87h-6.93c.17-1.97,1.6-3.39,3.46-3.39s3.31,1.42,3.48,3.39Z"/>
    <path class="cls-1" d="M67.6,12.28c-.44-.25-.91-.41-1.41-.5h-.03s-.04-.01-.04-.01c-.07-.01-.13-.03-.17-.02-.08-.02-.15,0-.21-.02-.03,0-.06,0-.06,0-.1-.01-.19-.01-.29-.01-.82,0-1.57.19-2.24.57-.61.34-1.1.82-1.47,1.42-.02.03-.04.06-.05.08,0,.02-.02.04-.03.05l-.04.06c-.36.64-.54,1.37-.54,2.18s.18,1.52.54,2.17c.01.02.03.05.04.06.01.02.02.03.03.05.02.03.03.06.04.07.37.6.87,1.08,1.48,1.43.66.38,1.42.57,2.24.57.1,0,.19,0,.28-.01.03,0,.05,0,.08,0,.05,0,.09,0,.14-.01.02,0,.04,0,.07,0,.08-.01.14-.01.21-.03l-.02-.12h0l.06.12c.5-.08.97-.25,1.41-.5.66-.38,1.19-.9,1.56-1.55v1.74c0,.09.02.16.08.21.05.05.12.08.21.08.13,0,.18-.05.21-.08.05-.05.08-.12.08-.22v-4c0-.82-.19-1.56-.57-2.22-.38-.67-.91-1.19-1.57-1.57ZM69.15,16.08c0,.71-.16,1.37-.49,1.95-.33.58-.79,1.05-1.36,1.39-.57.34-1.22.51-1.93.51s-1.36-.17-1.93-.51c-.58-.34-1.03-.8-1.36-1.39-.32-.57-.5-1.24-.5-1.95s.17-1.37.5-1.95c.32-.58.78-1.04,1.36-1.39.57-.34,1.22-.51,1.93-.51s1.36.17,1.93.51c.58.34,1.03.8,1.36,1.39.32.57.49,1.22.49,1.95Z"/>
  </g>
</svg>