<?xml version="1.0" encoding="UTF-8"?>
<svg id="Camada_1" xmlns="http://www.w3.org/2000/svg" viewBox="0 0 1741 137">
  <defs>
    <style>
      .cls-1 {
        fill: #fcbf02;
      }

      .cls-2 {
        fill: #ea4335;
      }

      .cls-3 {
        fill: #4285f4;
      }

      .cls-4 {
        fill: #34a853;
      }

      .cls-5 {
        fill: silver;
      }

      .cls-6 {
        fill: #fbbc05;
      }

      .cls-7 {
        fill: #f3f3f3;
      }
    </style>
  </defs>
  <rect class="cls-7" width="1741" height="137" rx="18.18" ry="18.18"/>
  <g>
    <g>
      <path class="cls-2" d="M82.23,50.65c0,4.45-3.48,7.73-7.76,7.73s-7.76-3.28-7.76-7.73,3.48-7.73,7.76-7.73,7.76,3.25,7.76,7.73ZM78.83,50.65c0-2.78-2.02-4.69-4.36-4.69s-4.36,1.9-4.36,4.69,2.02,4.69,4.36,4.69,4.36-1.93,4.36-4.69Z"/>
      <path class="cls-6" d="M98.96,50.65c0,4.45-3.48,7.73-7.76,7.73s-7.76-3.28-7.76-7.73,3.48-7.73,7.76-7.73,7.76,3.25,7.76,7.73ZM95.56,50.65c0-2.78-2.02-4.69-4.36-4.69s-4.36,1.9-4.36,4.69,2.02,4.69,4.36,4.69,4.36-1.93,4.36-4.69Z"/>
      <path class="cls-3" d="M115,43.38v13.88c0,5.71-3.37,8.04-7.35,8.04-3.75,0-6-2.51-6.85-4.56l2.96-1.23c.53,1.26,1.82,2.74,3.89,2.74,2.55,0,4.13-1.57,4.13-4.53v-1.11h-.12c-.76.94-2.22,1.76-4.07,1.76-3.87,0-7.41-3.37-7.41-7.7s3.54-7.76,7.41-7.76c1.84,0,3.31.82,4.07,1.73h.12v-1.26h3.22ZM112.01,50.68c0-2.72-1.82-4.71-4.13-4.71s-4.31,1.99-4.31,4.71,1.96,4.66,4.31,4.66,4.13-1.96,4.13-4.66Z"/>
      <path class="cls-4" d="M120.31,35.25v22.66h-3.31v-22.66h3.31Z"/>
      <path class="cls-2" d="M133.22,53.19l2.64,1.76c-.85,1.26-2.9,3.43-6.44,3.43-4.39,0-7.67-3.4-7.67-7.73,0-4.6,3.31-7.73,7.29-7.73s5.98,3.19,6.62,4.92l.35.88-10.34,4.28c.79,1.55,2.02,2.34,3.75,2.34s2.93-.85,3.81-2.14h0ZM125.11,50.41l6.91-2.87c-.38-.97-1.52-1.64-2.87-1.64-1.73,0-4.13,1.52-4.04,4.51Z"/>
      <path class="cls-3" d="M54.18,48.64v-3.28h11.05c.11.57.16,1.25.16,1.98,0,2.46-.67,5.5-2.84,7.67-2.11,2.2-4.8,3.37-8.37,3.37-6.62,0-12.18-5.39-12.18-12.01s5.56-12.01,12.18-12.01c3.66,0,6.27,1.44,8.23,3.31l-2.31,2.31c-1.4-1.32-3.31-2.34-5.92-2.34-4.83,0-8.61,3.89-8.61,8.73s3.78,8.73,8.61,8.73c3.13,0,4.92-1.26,6.06-2.4.93-.93,1.54-2.25,1.78-4.06h-7.84Z"/>
    </g>
    <g>
      <path d="M147.01,57.38c-.4,0-.71-.09-.95-.27-.24-.18-.38-.42-.43-.73-.05-.31,0-.65.17-1.03l6.54-14.49c.21-.48.47-.82.78-1.03s.66-.31,1.05-.31.72.1,1.03.31.57.55.78,1.03l6.56,14.49c.18.38.25.73.2,1.04-.05.31-.19.56-.42.73-.23.17-.54.26-.92.26-.46,0-.82-.11-1.08-.33-.26-.22-.48-.57-.68-1.03l-1.61-3.74,1.34.87h-10.45l1.34-.87-1.58,3.74c-.21.48-.44.83-.67,1.04-.23.21-.56.32-.99.32ZM154.11,43.16l-3.47,8.25-.64-.79h8.27l-.62.79-3.49-8.25h-.05Z"/>
      <path d="M169.17,57.38c-.41,0-.77-.11-1.08-.32-.31-.21-.56-.54-.76-.99l-3.94-9.14c-.15-.36-.2-.7-.16-1.02.04-.31.19-.57.45-.76.26-.19.61-.28,1.05-.28.38,0,.69.09.92.26.23.17.44.5.62.98l3.34,8.35h-.74l3.44-8.37c.18-.46.39-.78.63-.95.24-.17.57-.26.98-.26.36,0,.65.1.87.28.21.19.35.44.4.74.05.31,0,.64-.17,1l-4.01,9.16c-.18.45-.43.78-.73.99s-.67.32-1.1.32Z"/>
      <path d="M181.06,57.43c-.88,0-1.66-.17-2.34-.51-.69-.34-1.22-.8-1.61-1.37-.39-.58-.58-1.23-.58-1.96,0-.89.23-1.6.69-2.12.46-.52,1.21-.9,2.25-1.13,1.04-.23,2.44-.35,4.19-.35h1.24v1.78h-1.21c-1.02,0-1.84.05-2.45.15s-1.04.27-1.3.51c-.26.24-.38.57-.38,1,0,.54.19.99.57,1.34.38.35.91.52,1.58.52.54,0,1.03-.13,1.45-.38.42-.26.76-.61,1-1.05s.37-.96.37-1.54v-2.85c0-.83-.18-1.42-.54-1.78-.36-.36-.97-.54-1.83-.54-.48,0-1,.06-1.55.17-.55.12-1.14.31-1.75.59-.31.15-.59.19-.83.12s-.43-.2-.56-.41c-.13-.21-.2-.43-.2-.68s.07-.49.2-.73c.13-.24.35-.42.67-.53.76-.31,1.49-.54,2.19-.67.7-.13,1.34-.2,1.92-.2,1.19,0,2.17.18,2.94.54.77.36,1.34.91,1.72,1.65.38.73.57,1.68.57,2.84v5.94c0,.51-.12.9-.37,1.18-.25.27-.6.41-1.07.41s-.82-.14-1.08-.41c-.26-.27-.38-.66-.38-1.18v-1.19h.2c-.12.58-.34,1.08-.68,1.5-.34.42-.76.75-1.28.98-.51.23-1.1.35-1.76.35Z"/>
      <path d="M194.76,57.43c-1.37,0-2.4-.39-3.1-1.18-.69-.78-1.04-1.94-1.04-3.46v-11.72c0-.51.13-.9.4-1.16.26-.26.64-.4,1.14-.4s.88.13,1.15.4c.27.26.41.65.41,1.16v11.57c0,.76.16,1.32.48,1.68.32.36.78.54,1.38.54.13,0,.26,0,.37-.01.12,0,.23-.02.35-.04.23-.03.39.03.47.19.08.16.12.48.12.95,0,.41-.08.74-.25.97-.17.23-.44.37-.82.42-.17.02-.34.03-.52.05-.18.02-.36.02-.54.02Z"/>
      <path d="M200.06,42.59c-.58,0-1.03-.14-1.35-.43-.32-.29-.48-.69-.48-1.2s.16-.93.48-1.21c.32-.28.77-.42,1.35-.42s1.05.14,1.36.42c.31.28.47.69.47,1.21s-.16.91-.47,1.2c-.31.29-.77.43-1.36.43ZM200.06,57.35c-.5,0-.88-.15-1.14-.45-.26-.3-.4-.71-.4-1.24v-9.09c0-.54.13-.96.4-1.25.26-.29.64-.43,1.14-.43s.88.14,1.15.43c.27.29.41.71.41,1.25v9.09c0,.53-.13.94-.4,1.24s-.65.45-1.16.45Z"/>
      <path d="M208.83,57.43c-.88,0-1.66-.17-2.34-.51-.69-.34-1.22-.8-1.61-1.37-.39-.58-.58-1.23-.58-1.96,0-.89.23-1.6.69-2.12.46-.52,1.21-.9,2.25-1.13,1.04-.23,2.44-.35,4.19-.35h1.24v1.78h-1.21c-1.02,0-1.84.05-2.45.15s-1.04.27-1.3.51c-.26.24-.38.57-.38,1,0,.54.19.99.57,1.34.38.35.91.52,1.58.52.54,0,1.03-.13,1.45-.38.42-.26.76-.61,1-1.05s.37-.96.37-1.54v-2.85c0-.83-.18-1.42-.54-1.78-.36-.36-.97-.54-1.83-.54-.48,0-1,.06-1.55.17-.55.12-1.14.31-1.75.59-.31.15-.59.19-.83.12s-.43-.2-.56-.41c-.13-.21-.2-.43-.2-.68s.07-.49.2-.73c.13-.24.35-.42.67-.53.76-.31,1.49-.54,2.19-.67.7-.13,1.34-.2,1.92-.2,1.19,0,2.17.18,2.94.54.77.36,1.34.91,1.72,1.65.38.73.57,1.68.57,2.84v5.94c0,.51-.12.9-.37,1.18-.25.27-.6.41-1.07.41s-.82-.14-1.08-.41c-.26-.27-.38-.66-.38-1.18v-1.19h.2c-.12.58-.34,1.08-.68,1.5-.34.42-.76.75-1.28.98-.51.23-1.1.35-1.76.35Z"/>
      <path d="M223.99,57.43c-1.27,0-2.38-.26-3.32-.78-.94-.52-1.67-1.26-2.18-2.22-.51-.96-.77-2.08-.77-3.37,0-.97.14-1.85.43-2.61.29-.77.71-1.42,1.25-1.96.54-.54,1.21-.95,1.98-1.24.78-.29,1.64-.43,2.6-.43.54,0,1.14.07,1.77.22s1.23.4,1.8.74c.26.17.44.36.52.59.08.23.1.47.05.71-.05.24-.15.45-.31.62-.16.17-.35.28-.58.32-.23.04-.49-.01-.77-.16-.36-.21-.73-.38-1.11-.48s-.74-.16-1.09-.16c-.54,0-1.02.09-1.44.26-.41.17-.76.42-1.05.74-.29.32-.51.72-.66,1.2-.15.48-.22,1.03-.22,1.66,0,1.22.29,2.18.88,2.89.59.7,1.42,1.05,2.49,1.05.35,0,.71-.05,1.08-.15.37-.1.75-.26,1.13-.47.28-.15.53-.2.76-.15.22.05.41.16.56.33.15.17.24.38.27.62.03.24,0,.48-.09.71-.09.23-.26.42-.51.57-.54.33-1.12.57-1.73.72-.61.15-1.19.22-1.73.22ZM223.84,62.01c-.31,0-.64-.02-.99-.06-.35-.04-.66-.11-.94-.21-.25-.08-.42-.22-.51-.41-.09-.19-.11-.38-.05-.57.06-.19.17-.33.35-.43s.38-.1.63,0c.21.07.42.12.62.15.2.03.41.05.64.05.43,0,.76-.06.99-.19.23-.12.35-.31.35-.56,0-.18-.07-.32-.21-.42-.14-.1-.38-.15-.71-.15-.12,0-.24,0-.36.01-.12,0-.25.03-.38.06-.12.03-.22.05-.31.04-.09,0-.18-.05-.26-.11-.07-.07-.11-.15-.12-.25-.02-.1-.02-.23,0-.4l.27-1.88h1.66l-.32,1.88-.79-.27c.2-.07.4-.12.59-.15.2-.03.38-.05.54-.05.68,0,1.22.16,1.63.47.41.31.62.75.62,1.31,0,.64-.27,1.16-.82,1.55-.54.39-1.26.58-2.13.58Z"/>
      <path d="M235.35,57.43c-1.25,0-2.34-.26-3.27-.77s-1.64-1.24-2.15-2.19c-.51-.95-.77-2.07-.77-3.36,0-.97.14-1.85.43-2.61.29-.77.71-1.43,1.25-1.98.54-.55,1.2-.97,1.96-1.26.76-.29,1.61-.43,2.55-.43,1.25,0,2.34.26,3.27.77s1.64,1.24,2.15,2.18c.51.94.77,2.06.77,3.34,0,.97-.14,1.85-.43,2.63-.29.78-.71,1.44-1.25,1.99-.54.55-1.2.97-1.96,1.26-.76.29-1.61.43-2.55.43ZM231.32,42.79c-.25-.02-.44-.1-.57-.25-.13-.15-.17-.38-.1-.69.07-.35.17-.69.31-1.03.14-.34.33-.65.56-.93.23-.28.51-.51.84-.68.33-.17.72-.26,1.16-.26.41,0,.78.08,1.09.25.31.17.6.36.87.57.26.21.53.4.79.57s.55.25.87.25c.35,0,.65-.12.9-.36.26-.24.42-.54.48-.9.03-.18.12-.32.26-.42.14-.1.34-.14.61-.12.25.02.44.1.57.25.13.15.17.38.1.69-.08.45-.24.89-.47,1.34-.23.45-.54.82-.93,1.11-.39.3-.88.45-1.47.45-.41,0-.78-.08-1.09-.25-.31-.16-.61-.35-.88-.57-.27-.21-.54-.4-.8-.57-.26-.17-.54-.25-.84-.25-.35,0-.64.12-.89.35-.25.23-.41.54-.5.92-.03.18-.12.32-.26.42-.14.1-.34.14-.61.12ZM235.35,55.07c.61,0,1.15-.15,1.61-.45.46-.3.82-.74,1.08-1.33.26-.59.38-1.32.38-2.19,0-1.32-.28-2.31-.84-2.96-.56-.65-1.3-.98-2.23-.98-.61,0-1.15.15-1.61.43-.46.29-.82.73-1.08,1.31s-.38,1.32-.38,2.19c0,1.3.28,2.29.84,2.96.56.67,1.3,1,2.23,1Z"/>
      <path d="M250.07,57.43c-1.37,0-2.55-.26-3.54-.77-.99-.51-1.75-1.24-2.29-2.18-.54-.94-.8-2.06-.8-3.34s.26-2.35.78-3.29c.52-.94,1.24-1.68,2.15-2.22s1.96-.81,3.13-.81c.86,0,1.63.14,2.32.42.69.28,1.27.69,1.76,1.21.49.53.86,1.17,1.11,1.92.26.75.38,1.6.38,2.54,0,.3-.1.52-.31.68-.21.16-.5.24-.88.24h-7.95v-1.78h6.96l-.4.37c0-.76-.11-1.4-.33-1.91-.22-.51-.54-.9-.97-1.18-.42-.27-.95-.41-1.57-.41-.69,0-1.28.16-1.77.48-.49.32-.86.78-1.11,1.36-.26.59-.38,1.28-.38,2.09v.17c0,1.35.32,2.37.95,3.03.64.67,1.57,1,2.81,1,.43,0,.91-.05,1.45-.16s1.04-.29,1.52-.56c.35-.2.65-.28.92-.26.26.02.47.12.63.28s.25.37.29.61c.03.24-.01.48-.14.73-.12.25-.33.46-.63.64-.58.36-1.24.63-1.99.81-.75.17-1.45.26-2.09.26Z"/>
      <path d="M261.96,57.43c-.71,0-1.46-.07-2.25-.22-.79-.15-1.5-.4-2.13-.77-.26-.16-.45-.36-.56-.58-.11-.22-.15-.45-.12-.67.02-.22.11-.42.25-.58.14-.16.32-.27.54-.32s.47,0,.73.12c.66.31,1.28.53,1.86.66.58.12,1.15.19,1.71.19.79,0,1.38-.14,1.77-.41.39-.27.58-.63.58-1.08,0-.38-.13-.67-.38-.88-.26-.21-.64-.36-1.15-.46l-2.48-.47c-1.02-.2-1.8-.57-2.34-1.13-.54-.55-.81-1.27-.81-2.14,0-.79.22-1.48.66-2.06.44-.58,1.04-1.02,1.82-1.34.78-.31,1.67-.47,2.67-.47.73,0,1.41.08,2.04.24.64.16,1.25.4,1.85.73.25.13.42.31.51.52.09.21.11.43.06.66-.05.22-.15.42-.3.59-.15.17-.33.28-.56.32-.22.04-.48,0-.76-.14-.51-.26-1-.45-1.47-.57-.47-.12-.92-.17-1.35-.17-.81,0-1.41.14-1.8.42-.39.28-.58.65-.58,1.11,0,.35.12.64.35.87.23.23.59.39,1.07.47l2.48.47c1.07.2,1.89.56,2.44,1.09.55.53.83,1.24.83,2.13,0,1.21-.47,2.15-1.41,2.84-.94.69-2.2,1.03-3.77,1.03Z"/>
    </g>
    <g>
      <path d="M55.26,101.17c-.55,0-.98-.15-1.29-.45-.31-.3-.47-.74-.47-1.3v-2.14h-6.78c-.57,0-1.02-.12-1.36-.36-.34-.24-.51-.61-.51-1.12,0-.29.08-.61.23-.96.16-.35.43-.81.84-1.37l7.52-10.9c.26-.38.54-.68.85-.88.31-.2.67-.3,1.07-.3.48,0,.87.14,1.18.43.31.28.47.73.47,1.33v11.23h1.35c.53,0,.93.12,1.19.37.27.25.4.61.4,1.08s-.13.84-.4,1.08c-.27.25-.66.37-1.19.37h-1.35v2.14c0,.57-.16,1-.47,1.3-.31.3-.74.45-1.29.45ZM53.5,94.36v-8.56h.8l-6.48,9.5v-.93h5.68Z"/>
      <path d="M63.82,101.09c-.62,0-1.12-.19-1.5-.58-.38-.38-.56-.88-.56-1.48s.19-1.07.56-1.44.87-.56,1.5-.56,1.14.19,1.5.56c.36.38.54.86.54,1.44s-.18,1.1-.54,1.48c-.36.38-.86.58-1.5.58Z"/>
      <path d="M75.43,101.22c-1.5,0-2.79-.22-3.86-.65s-1.89-1.06-2.47-1.88c-.58-.82-.86-1.81-.86-2.96,0-.91.19-1.72.56-2.43.38-.7.89-1.28,1.55-1.72s1.41-.71,2.25-.82v.58c-1.17-.26-2.11-.82-2.81-1.69-.7-.87-1.06-1.91-1.06-3.11,0-1.1.27-2.04.82-2.81.55-.78,1.33-1.37,2.33-1.78,1.01-.41,2.19-.62,3.54-.62s2.56.21,3.57.62c1.01.41,1.78,1.01,2.33,1.78.55.78.82,1.72.82,2.81,0,.81-.16,1.55-.48,2.22-.32.68-.77,1.24-1.34,1.67-.58.44-1.25.73-2.02.88v-.55c1.28.18,2.32.72,3.12,1.61.8.89,1.19,2.01,1.19,3.36,0,1.15-.29,2.14-.86,2.96-.58.82-1.4,1.45-2.47,1.88s-2.36.65-3.86.65ZM75.43,98.48c1.3,0,2.28-.25,2.94-.75s.99-1.25.99-2.24-.33-1.73-.99-2.22c-.66-.49-1.64-.74-2.94-.74s-2.26.25-2.92.74c-.67.49-1,1.23-1,2.22s.33,1.73,1,2.24,1.64.75,2.92.75ZM75.43,89.78c.73,0,1.35-.11,1.87-.34.51-.23.91-.56,1.18-1s.41-.95.41-1.54c0-.88-.31-1.57-.92-2.07-.61-.5-1.46-.75-2.54-.75s-1.92.25-2.53.75c-.6.5-.91,1.19-.91,2.07s.3,1.6.91,2.11c.6.51,1.45.77,2.53.77Z"/>
    </g>
    <g>
      <path class="cls-1" d="M111.09,78.25l3.57,7.23c.11.23.34.39.59.43l7.98,1.16c.64.09.9.89.44,1.34l-5.77,5.63c-.19.18-.27.44-.23.7l1.36,7.94c.11.64-.56,1.13-1.14.83l-7.13-3.75c-.23-.12-.5-.12-.73,0l-7.13,3.75c-.58.3-1.25-.19-1.14-.83l1.36-7.94c.04-.25-.04-.52-.23-.7l-5.77-5.63c-.47-.45-.21-1.25.44-1.34l7.98-1.16c.26-.04.48-.2.59-.43l3.57-7.23c.29-.58,1.12-.58,1.41,0Z"/>
      <path class="cls-1" d="M142.37,78.25l3.57,7.23c.11.23.34.39.59.43l7.98,1.16c.64.09.9.89.44,1.34l-5.77,5.63c-.19.18-.27.44-.23.7l1.36,7.94c.11.64-.56,1.13-1.14.83l-7.13-3.75c-.23-.12-.5-.12-.73,0l-7.13,3.75c-.58.3-1.25-.19-1.14-.83l1.36-7.94c.04-.25-.04-.52-.23-.7l-5.77-5.63c-.47-.45-.21-1.25.44-1.34l7.98-1.16c.26-.04.48-.2.59-.43l3.57-7.23c.29-.58,1.12-.58,1.41,0Z"/>
      <path class="cls-1" d="M173.64,78.25l3.57,7.23c.11.23.34.39.59.43l7.98,1.16c.64.09.9.89.44,1.34l-5.77,5.63c-.19.18-.27.44-.23.7l1.36,7.94c.11.64-.56,1.13-1.14.83l-7.13-3.75c-.23-.12-.5-.12-.73,0l-7.13,3.75c-.58.3-1.25-.19-1.14-.83l1.36-7.94c.04-.25-.04-.52-.23-.7l-5.77-5.63c-.47-.45-.21-1.25.44-1.34l7.98-1.16c.26-.04.48-.2.59-.43l3.57-7.23c.29-.58,1.12-.58,1.41,0Z"/>
      <path class="cls-1" d="M204.92,78.25l3.57,7.23c.11.23.34.39.59.43l7.98,1.16c.64.09.9.89.44,1.34l-5.77,5.63c-.19.18-.27.44-.23.7l1.36,7.94c.11.64-.56,1.13-1.14.83l-7.13-3.75c-.23-.12-.5-.12-.73,0l-7.13,3.75c-.58.3-1.25-.19-1.14-.83l1.36-7.94c.04-.25-.04-.52-.23-.7l-5.77-5.63c-.47-.45-.21-1.25.44-1.34l7.98-1.16c.26-.04.48-.2.59-.43l3.57-7.23c.29-.58,1.12-.58,1.41,0Z"/>
      <path class="cls-1" d="M235.7,77.87c-.34-.1-.74,0-.92.38l-3.57,7.23c-.11.23-.34.39-.59.43l-7.98,1.16c-.64.09-.9.89-.44,1.34l5.77,5.63c.19.18.27.44.23.7l-1.36,7.94c-.11.64.56,1.13,1.14.83l7.13-3.75c.18-.1.39-.09.58-.04v-21.84Z"/>
      <path class="cls-5" d="M248.33,87.06l-7.98-1.16c-.26-.04-.48-.2-.59-.43l-3.57-7.23c-.11-.21-.29-.32-.49-.38v21.84s.1.01.15.04l7.13,3.75c.58.3,1.25-.19,1.14-.83l-1.36-7.94c-.04-.26.04-.52.23-.7l5.77-5.63c.47-.45.21-1.25-.44-1.34Z"/>
    </g>
  </g>
</svg>